<?xml version="1.0" encoding="UTF-8"?>
<!DOCTYPE svg PUBLIC "-//W3C//DTD SVG 1.1//EN" "http://www.w3.org/Graphics/SVG/1.1/DTD/svg11.dtd">
<!-- Creator: CorelDRAW -->
<svg xmlns="http://www.w3.org/2000/svg" xml:space="preserve" width="135.45mm" height="135.45mm" version="1.1" style="shape-rendering:geometricPrecision; text-rendering:geometricPrecision; image-rendering:optimizeQuality; fill-rule:evenodd; clip-rule:evenodd"
viewBox="0 0 12942.44 12942.39"
 xmlns:xlink="http://www.w3.org/1999/xlink"
 xmlns:xodm="http://www.corel.com/coreldraw/odm/2003">
 <defs>
  <style type="text/css">
   <![CDATA[
    .fil0 {fill:#FFB000}
   ]]>
  </style>
 </defs>
 <g id="Camada_x0020_1">
  <metadata id="CorelCorpID_0Corel-Layer"/>
  <g id="_1413833196448">
   <path class="fil0" d="M-0 6269c0,962.39 59.34,1496.18 369.41,2385.91 150.67,432.29 288.12,679.61 498.66,1068.6 48.82,90.16 93.84,150.36 144.3,234.89 425.44,712.46 1235.35,1511.72 1940.29,1952.52 86.31,54.02 161.92,105.95 249.76,154.7 1091.79,605.9 1976.31,876.77 3395.24,876.77l0 -4979.75c0,-58.24 -17.62,-75.85 -75.85,-75.85l-1314.45 0 0 -1592.52 1390.3 0c0,-693.19 -75.24,-1605.19 169.19,-2181.67 371.86,-876.7 1198.96,-1209.66 2207.05,-1155.21l935.19 75.97 0 1415.56c-1740.5,0 -1668.38,-62.82 -1668.38,1769.49 0,116.95 201.8,76.28 328.61,75.85l1289.24 0 -202.23 1592.52 -1339.71 0c-58.24,0 -75.85,17.62 -75.85,75.85l0 4727c181.38,-4.04 806.05,-266.77 969.32,-345.13 526.56,-252.82 793.64,-430.28 1237.19,-759.8 330.63,-245.6 591.4,-524.97 858.23,-810.09 959.29,-1025.1 1636.93,-2663.7 1636.93,-4075.9 0,-1167.14 -137.76,-2007.81 -597.95,-2966.3 -700.05,-1457.95 -1688.93,-2404.33 -3117.83,-3125.84 -683.4,-345.06 -1752.68,-606.57 -2527.9,-606.57 -974.26,0 -1505.96,53.95 -2411.18,369.41 -180.46,62.88 -391.49,146.26 -554.94,228.65l-748.55 414.25c-1061.69,633.98 -1835.26,1628.01 -2385.92,2720.22 -346.54,687.26 -598.07,1758.61 -598.07,2536.39l-0.1 0.08z"/>
  </g>
 </g>
</svg>
