<?xml version="1.0" encoding="UTF-8"?>
<!DOCTYPE svg PUBLIC "-//W3C//DTD SVG 1.1//EN" "http://www.w3.org/Graphics/SVG/1.1/DTD/svg11.dtd">
<!-- Creator: CorelDRAW -->
<svg xmlns="http://www.w3.org/2000/svg" xml:space="preserve" width="135.449mm" height="135.448mm" version="1.1" style="shape-rendering:geometricPrecision; text-rendering:geometricPrecision; image-rendering:optimizeQuality; fill-rule:evenodd; clip-rule:evenodd"
viewBox="0 0 3131.86 3131.83"
 xmlns:xlink="http://www.w3.org/1999/xlink"
 xmlns:xodm="http://www.corel.com/coreldraw/odm/2003">
 <defs>
  <style type="text/css">
   <![CDATA[
    .fil0 {fill:#FFB000}
   ]]>
  </style>
 </defs>
 <g id="Camada_x0020_1">
  <metadata id="CorelCorpID_0Corel-Layer"/>
  <path class="fil0" d="M1480.3 1278.4l0 574.99c0,29.22 24.24,55.99 42.62,67.48 37.17,23.2 276.65,12.04 330.51,12.04 150.88,0 301.78,0 452.66,0 -9.24,39.68 -54.37,98.72 -77.75,130.23 -17.71,23.87 -29.11,33.47 -47.17,56.82 -17.62,22.78 -37.46,35.22 -52.48,57.64l512.3 515.34c39.19,-12.2 157.03,-161.77 186.83,-201.58 173.37,-231.45 304.03,-573.22 304.03,-870.41l0 -5.22 0 -66.66c-0.29,-75.38 -2.53,-138.04 -16.51,-223.6 -6.53,-40 -17.49,-126.61 -87.48,-126.61l-1468.06 0c-37.51,0 -79.51,42 -79.51,79.51l0 0.02zm-1480.3 232.45l0 110.1c0,238.92 88.24,497.61 171.28,654.51l567.58 -564.14c17.27,-25.36 -4.82,-107.26 -4.82,-145.42 0,-189.85 88.37,-61.5 -237.03,-386.89 -47.46,-47.46 -296.71,-303.23 -325.73,-322.67 -83.02,156.92 -171.28,415.59 -171.28,654.51l0 0.02zm275.27 929.78c5.82,24.96 28.89,52.13 44.71,71.5l170.9 189.99c151.9,152.01 402.95,301.76 606.63,359.86 221.96,63.31 290.56,69.86 523.48,69.86 171.94,0 367.97,-50.33 494.66,-98.68 91.95,-35.09 216.3,-97.62 295.65,-150.88 32.15,-21.57 59.84,-41.87 90.51,-62.4l-527.56 -530.67c-52.02,26.82 -114.99,54.93 -179.76,74.15 -122.9,36.44 -237.83,43.22 -367.62,20.56 -233.45,-40.75 -430.95,-175.65 -557.18,-372.6 -21.42,-33.42 -37.77,-68.08 -56.18,-102.86 -30.6,8.16 -366.88,357.69 -405.26,396.08 -33.33,33.33 -111.06,103.26 -133.04,136.1l0.04 0zm0 -1749.44c21.64,32.31 97.26,100.32 129.99,133.04 46.35,46.35 88.22,88.22 134.57,134.57 25.82,25.82 244.92,256.87 273.74,264.56 112.24,-212.12 248,-363.35 487.03,-442.75 472.79,-157.08 745.22,136.92 803.66,136.92 76.26,0 91.26,-39.26 154.44,-102.46l235.51 -235.51c39.91,-39.91 163.3,-129.79 76.77,-214.39 -85.28,-83.39 -272.18,-185.41 -377.02,-234.67 -214.54,-100.81 -424.17,-130.5 -683.05,-130.5 -197.12,0 -413.52,59.13 -581.22,134.46 -156.72,70.4 -314.4,170.66 -435.73,292.18l-88.77 88.62c-27.93,30.2 -122.84,145.59 -129.9,175.94l-0.02 -0.01z"/>
 </g>
</svg>
