<?xml version="1.0" encoding="UTF-8"?>
<!DOCTYPE svg PUBLIC "-//W3C//DTD SVG 1.1//EN" "http://www.w3.org/Graphics/SVG/1.1/DTD/svg11.dtd">
<!-- Creator: CorelDRAW -->
<svg xmlns="http://www.w3.org/2000/svg" xml:space="preserve" width="135.45mm" height="135.45mm" version="1.1" style="shape-rendering:geometricPrecision; text-rendering:geometricPrecision; image-rendering:optimizeQuality; fill-rule:evenodd; clip-rule:evenodd"
viewBox="0 0 7606.56 7606.56"
 xmlns:xlink="http://www.w3.org/1999/xlink"
 xmlns:xodm="http://www.corel.com/coreldraw/odm/2003">
 <defs>
  <style type="text/css">
   <![CDATA[
    .fil0 {fill:#FFB000}
   ]]>
  </style>
 </defs>
 <g id="Camada_x0020_1">
  <metadata id="CorelCorpID_0Corel-Layer"/>
  <g id="_1413833014208">
   <path class="fil0" d="M3729.02 4278.7c347.4,0 672.85,-56.67 927.27,-231.95 77.31,-53.24 69.87,-57.51 162.29,-11.23 152.45,76.32 340.13,185.32 465.84,292.26 380.82,323.97 667.32,716.09 803.85,1216.64 32.57,119.45 70.28,292.44 77.16,428.07 12.45,245.79 24.23,129.42 -159.46,315.72 -314.19,318.68 -901.84,597.12 -1306.01,714.48 -573.94,166.66 -1202.5,167.26 -1781.8,3.32 -447.28,-126.59 -808.69,-310.54 -1171.49,-596.42l-199.35 -172.06c-135.48,-107.97 -111.85,-79.35 -106.45,-250.4 13.56,-429.59 242.83,-949.45 496.63,-1271.52 190.53,-241.78 411.29,-426.52 676.42,-586.37 192.69,-116.18 237.95,-151.45 327.55,-88.88 162.14,113.26 510.5,238.29 787.54,238.29l0 0.02zm-45.66 -4278.7l262.35 0c269.42,9.11 538.11,46.24 799.72,112.69 643.97,163.57 1281.67,528.62 1750.75,997.7 47.93,47.93 67.05,81.21 110.99,126.72 127.38,131.93 200.58,228.45 307.43,375.96 423.74,584.89 662.26,1305.59 691.96,2041.39l0 313.24c-10.61,261.28 -47.78,522.3 -112.69,777.71 -131.93,519.15 -309.45,837.13 -585.58,1256.65 -31.9,48.47 -62.14,90.42 -100.56,137.15l-207.91 237.79c-41.12,44.38 -57.55,73.04 -103.68,119.18 -262.09,262.09 -737.04,609.96 -1084.1,758.13 -226.89,96.87 -416,176.88 -678.59,242.51 -423.63,105.89 -624.4,109.66 -1043.77,109.75l-20.14 0c-523.37,0 -1134,-183.01 -1485.87,-356.33 -386.93,-190.59 -518.4,-293.76 -838.09,-543.58 -136.19,-106.43 -240.13,-227.34 -346.22,-337.19l-161.3 -180.4c-20.29,-25.82 -33.51,-46.07 -50.53,-68.33 -20.38,-26.64 -31.61,-36.36 -53.39,-65.44 -115.11,-153.55 -307.58,-469.19 -381.89,-643.21 -284.89,-667.32 -352.26,-1002.57 -352.26,-1742.5 0,-755.79 308.05,-1512.16 698.15,-2065.17 34.09,-48.34 61.28,-89.16 100.64,-137.05 233.79,-284.4 395.5,-450.65 684.8,-682.02 607.97,-486.2 1397.72,-758.58 2199.73,-785.34l0.03 -0.01zm-1068.58 2614.74c0,-746.36 725.73,-1329.95 1452.4,-1155.27 367.5,88.34 656.31,328.77 815.89,669.76 309.73,661.77 -80.09,1464.68 -815.79,1640.87 -174.5,41.78 -353.44,41.78 -527.96,0 -526.71,-126.14 -924.55,-608.59 -924.55,-1155.36l0.01 0zm-475.42 -74.29c0,356.05 44.67,611.26 221.96,907.13 33.55,55.99 106.04,148.32 119.73,207.11 -123.91,33.08 -513.41,328.24 -620.56,434.26 -286.37,283.33 -438.5,481.65 -627.4,858.26 -99.81,198.97 -166.27,396.03 -222.84,638.84 -98.37,-72.08 -324.55,-611.1 -373.3,-770.64 -142.75,-467.24 -195.61,-905.14 -134.58,-1386.32 93.27,-735.43 316.95,-1195.6 745.46,-1750.45l305.85 -318.13c45.9,-35.48 66.02,-63.68 110.24,-97.75 476.81,-367.51 774.69,-543.56 1384.54,-695.39 179.73,-44.74 546.19,-89.73 739.74,-92.91 90.46,-1.48 115.49,14.22 192.93,16.24 751.33,19.52 1374.26,314.95 1946.78,757.12 45.04,34.8 64.92,63.46 108.25,99.74l207.99 207.99c36.41,43.48 64.77,63.08 99.66,108.36l181.36 234.63c509.21,761.17 689.54,1521.83 559.13,2437.29 -22.13,155.39 -67.56,320.27 -111.19,468.22 -47.93,162.63 -276.45,708.55 -376.77,782.04 -116.43,-499.78 -374.44,-1023.97 -731.64,-1377.98 -261.99,-259.63 -400.68,-374.29 -739.14,-553.37 15.47,-66.45 149.22,-226.59 227.32,-426.37 447.54,-1144.8 -451.81,-2277.53 -1475.26,-2277.53 -514.99,0 -901.77,136.66 -1251.68,486.56 -272.98,272.98 -486.56,683.9 -486.56,1103.1l-0.03 -0.05z"/>
  </g>
 </g>
</svg>
