<?xml version="1.0"?>
<svg xmlns="http://www.w3.org/2000/svg" xmlns:xlink="http://www.w3.org/1999/xlink" xmlns:svgjs="http://svgjs.com/svgjs" version="1.1" width="512" height="512" x="0" y="0" viewBox="0 0 24 24" style="enable-background:new 0 0 512 512" xml:space="preserve"><g><g xmlns="http://www.w3.org/2000/svg" id="_01_align_center" data-name="01 align center"><path d="M18,6A6,6,0,0,0,6,6H0V21a3,3,0,0,0,3,3H21a3,3,0,0,0,3-3V6ZM12,2a4,4,0,0,1,4,4H8A4,4,0,0,1,12,2ZM22,21a1,1,0,0,1-1,1H3a1,1,0,0,1-1-1V8H6v2H8V8h8v2h2V8h4Z" fill="#ffb000" data-original="#000000"/></g></g></svg>
