<?xml version="1.0" encoding="UTF-8"?>
<!DOCTYPE svg PUBLIC "-//W3C//DTD SVG 1.1//EN" "http://www.w3.org/Graphics/SVG/1.1/DTD/svg11.dtd">
<!-- Creator: CorelDRAW -->
<svg xmlns="http://www.w3.org/2000/svg" xml:space="preserve" width="8.887mm" height="6.2486mm" version="1.1" style="shape-rendering:geometricPrecision; text-rendering:geometricPrecision; image-rendering:optimizeQuality; fill-rule:evenodd; clip-rule:evenodd"
viewBox="0 0 83.51 58.72"
 xmlns:xlink="http://www.w3.org/1999/xlink"
 xmlns:xodm="http://www.corel.com/coreldraw/odm/2003">
 <defs>
  <style type="text/css">
   <![CDATA[
    .fil0 {fill:white}
   ]]>
  </style>
 </defs>
 <g id="Camada_x0020_1">
  <metadata id="CorelCorpID_0Corel-Layer"/>
  <path class="fil0" d="M73.07 26.26c-22.13,0 -44.26,0 -66.38,0 -2.73,0 -6.69,-0.58 -6.69,3.26 0,1.25 1.01,2.44 2.02,2.71 0.86,0.23 69.7,0.07 71.21,0.07 -0.52,0.78 -17.74,17.82 -19.29,19.37 -0.98,0.98 -2.5,2 -2.76,3.61 -0.26,1.67 0.79,3.45 3.12,3.45 1.26,0 1.67,-0.61 2.32,-1.26l25.53 -25.53c0.94,-0.93 1.33,-1.11 1.35,-2.66l0 -0.08 0 -0.06c-0.02,-1.21 -0.62,-1.62 -1.26,-2.27l-25.53 -25.53c-0.95,-0.95 -1.11,-1.35 -2.73,-1.35 -1.84,0 -3.02,1.76 -2.82,3.32 0.2,1.61 1.74,2.7 2.69,3.65 1.53,1.53 18.67,18.49 19.21,19.29z"/>
 </g>
</svg>
