<?xml version="1.0" encoding="UTF-8"?>
<!DOCTYPE svg PUBLIC "-//W3C//DTD SVG 1.1//EN" "http://www.w3.org/Graphics/SVG/1.1/DTD/svg11.dtd">
<!-- Creator: CorelDRAW -->
<svg xmlns="http://www.w3.org/2000/svg" xml:space="preserve" width="8.8856mm" height="6.2503mm" version="1.1" style="shape-rendering:geometricPrecision; text-rendering:geometricPrecision; image-rendering:optimizeQuality; fill-rule:evenodd; clip-rule:evenodd"
viewBox="0 0 27.88 19.61"
 xmlns:xlink="http://www.w3.org/1999/xlink"
 xmlns:xodm="http://www.corel.com/coreldraw/odm/2003">
 <defs>
  <style type="text/css">
   <![CDATA[
    .fil0 {fill:#330031}
   ]]>
  </style>
 </defs>
 <g id="Camada_x0020_1">
  <metadata id="CorelCorpID_0Corel-Layer"/>
  <g id="_2002841342816">
   <g id="_1963940896112">
    <g id="_1390217000080">
     <path class="fil0" d="M3.48 10.84c7.39,0 14.78,0 22.16,0 0.91,0 2.23,0.19 2.23,-1.09 0,-0.42 -0.34,-0.81 -0.68,-0.91 -0.29,-0.08 -23.27,-0.02 -23.77,-0.02 0.17,-0.26 5.92,-5.95 6.44,-6.47 0.33,-0.33 0.84,-0.67 0.92,-1.21 0.09,-0.56 -0.26,-1.15 -1.04,-1.15 -0.42,0 -0.56,0.2 -0.77,0.42l-8.52 8.52c-0.31,0.31 -0.44,0.37 -0.45,0.89l0 0.03 0 0.02c0.01,0.4 0.21,0.54 0.42,0.76l8.52 8.52c0.32,0.32 0.37,0.45 0.91,0.45 0.61,0 1.01,-0.59 0.94,-1.11 -0.07,-0.54 -0.58,-0.9 -0.9,-1.22 -0.51,-0.51 -6.23,-6.17 -6.41,-6.44l-0 -0 0.01 0z"/>
    </g>
   </g>
  </g>
 </g>
</svg>
