<?xml version="1.0" encoding="UTF-8"?>
<!DOCTYPE svg PUBLIC "-//W3C//DTD SVG 1.1//EN" "http://www.w3.org/Graphics/SVG/1.1/DTD/svg11.dtd">
<!-- Creator: CorelDRAW -->
<svg xmlns="http://www.w3.org/2000/svg" xml:space="preserve" width="135.45mm" height="135.449mm" version="1.1" style="shape-rendering:geometricPrecision; text-rendering:geometricPrecision; image-rendering:optimizeQuality; fill-rule:evenodd; clip-rule:evenodd"
viewBox="0 0 7449.36 7449.32"
 xmlns:xlink="http://www.w3.org/1999/xlink"
 xmlns:xodm="http://www.corel.com/coreldraw/odm/2003">
 <defs>
  <style type="text/css">
   <![CDATA[
    .fil0 {fill:#FFB000}
   ]]>
  </style>
 </defs>
 <g id="Camada_x0020_1">
  <metadata id="CorelCorpID_0Corel-Layer"/>
  <g id="_1413833858992">
   <path class="fil0" d="M5776.18 2458.9zm0 0zm-2181.32 -2458.9l268.25 0c265.51,9.21 529.71,45.7 784.26,110.38 331.68,84.25 673.08,225.91 957.11,395.96 271.36,162.49 416.28,271.61 640.74,479.55 202.43,187.52 249.49,235.02 435.06,467.04 476.05,595.29 742.91,1368.94 769.09,2154.49l0 256.89c-8.91,263.81 -45.25,526.91 -110.38,783.01 -129.2,508.44 -303.05,819.85 -573.46,1230.67 -31.24,47.46 -60.82,88.55 -98.46,134.3l-203.64 232.87c-40.25,43.45 -56.37,71.53 -101.52,116.69 -256.7,256.7 -721.78,597.34 -1061.68,742.46 -222.21,94.86 -407.42,173.2 -664.57,237.53 -414.88,103.72 -611.51,107.38 -1022.18,107.48l-19.72 0c-622.22,0 -1291.44,-232.52 -1748.82,-506.34 -98.36,-58.92 -181.76,-116.89 -273.62,-177.4 -280.38,-184.86 -595.34,-503.79 -800.03,-771.34 -19.97,-26.08 -30.94,-35.59 -52.31,-64.07 -112.73,-150.37 -301.25,-459.48 -373.98,-629.93 -279.02,-653.5 -345,-981.84 -345,-1706.47 0,-736.2 291.69,-1464.3 683.69,-2022.49 177.5,-252.75 462.54,-560.45 704.46,-750.47 25.28,-19.87 45.1,-32.84 66.93,-49.51 26.08,-19.97 35.59,-30.94 64.07,-52.31 177.66,-133.15 422.04,-275.42 629.08,-374.83 438.01,-210.29 939.59,-326.68 1446.53,-344.15l0.09 -0.01zm2181.32 2458.9c-27.83,104.27 -295.69,342.3 -392.86,407.37 0,305.65 -18.82,486.06 -81.24,733.5 -57.66,228.51 -143.27,407.17 -238.63,590.68 -183.61,353.26 -472.35,639.49 -800.23,858.39 -367.98,245.68 -840.67,363.62 -1295.09,363.57 -297.5,-0.05 -505.53,-30.68 -729.4,-99.97 -110.33,-34.14 -193.83,-66.93 -293.99,-113.38 -73.73,-34.19 -210.94,-97.76 -271.52,-150.42 464.24,0 828.56,-55.97 1179.56,-319.07 36.89,-27.68 29.34,-9.56 42.6,-59.22 -376.84,0 -718.13,-292.09 -785.66,-581.98 74.09,17.27 321.22,48.76 378.29,-29.08 -245.73,-5.46 -518,-262.65 -619.77,-515.09 -32.54,-80.74 -64.07,-208.69 -64.07,-314.22 96.51,46.3 237.32,101.87 378.29,101.87 -41.35,-61.72 -236.97,-158.44 -331.68,-468.54 -75.14,-245.89 -22.77,-491.42 69.78,-666.32 63.13,42.25 97.76,105.77 156.33,163.74 118.13,116.94 227.77,209.19 367.38,301.9 342.25,227.27 827.01,421.89 1251.3,421.89 -3,-135.25 -37.99,-231.52 5.51,-401.86 83.74,-327.88 329.68,-575.31 683.88,-640.14 271.52,-49.71 556.74,65.97 681.89,179.96 80.19,73.09 45.5,113.93 306.05,22.27 52.16,-18.37 109.13,-41.55 155.78,-62.47 53.91,-24.23 97.52,-57.97 160.18,-72.59 -24.28,50.61 -31.94,86.7 -64.07,139.61 -108.63,178.66 -175.6,203.58 -299.65,311.41 75.74,0 171.15,-19.97 238.13,-38.34 71.18,-19.52 141.96,-57.62 212.95,-63.52l-0.05 0.07z"/>
  </g>
 </g>
</svg>
