<svg width="564" height="332" viewBox="0 0 564 332" fill="none" xmlns="http://www.w3.org/2000/svg">
<path d="M17.3502 56.4279C14.3835 56.4279 11.7668 55.8113 9.50016 54.5779C7.26683 53.3446 5.53349 51.6113 4.30016 49.3779C3.06683 47.1446 2.45016 44.5779 2.45016 41.6779C2.45016 37.5779 3.33349 33.9279 5.10016 30.7279C6.86683 27.4946 9.31683 24.9779 12.4502 23.1779C15.6168 21.3779 19.2002 20.4779 23.2002 20.4779C26.2002 20.4779 28.8335 21.0946 31.1002 22.3279C33.3668 23.5279 35.1168 25.2446 36.3502 27.4779C37.5835 29.6779 38.2002 32.2113 38.2002 35.0779C38.2002 39.1779 37.3168 42.8613 35.5502 46.1279C33.7835 49.3613 31.3168 51.8946 28.1502 53.7279C24.9835 55.5279 21.3835 56.4279 17.3502 56.4279ZM18.6502 48.5279C20.8502 48.5279 22.7835 47.9613 24.4502 46.8279C26.1168 45.6946 27.4002 44.1779 28.3002 42.2779C29.2335 40.3446 29.7002 38.2613 29.7002 36.0279C29.7002 33.6279 29.0335 31.7446 27.7002 30.3779C26.3668 29.0113 24.5002 28.3279 22.1002 28.3279C19.9002 28.3279 17.9502 28.8946 16.2502 30.0279C14.5835 31.1613 13.2835 32.6779 12.3502 34.5779C11.4502 36.4446 11.0002 38.5113 11.0002 40.7779C11.0002 43.1779 11.6668 45.0779 13.0002 46.4779C14.3335 47.8446 16.2168 48.5279 18.6502 48.5279ZM55.7291 38.4779C56.3291 35.0113 57.6124 31.9279 59.5791 29.2279C61.5791 26.4946 64.0457 24.3779 66.9791 22.8779C69.9124 21.3446 73.0791 20.5779 76.4791 20.5779C80.6457 20.5779 84.0124 21.6779 86.5791 23.8779C89.1791 26.0779 90.6457 29.0779 90.9791 32.8779H81.5791C81.1457 31.4446 80.3457 30.3613 79.1791 29.6279C78.0457 28.8613 76.6457 28.4779 74.9791 28.4779C72.3457 28.4779 70.0624 29.3946 68.1291 31.2279C66.1957 33.0279 64.9624 35.4446 64.4291 38.4779C64.2624 39.4113 64.1791 40.2279 64.1791 40.9279C64.1791 43.2613 64.8291 45.1113 66.1291 46.4779C67.4291 47.8446 69.2124 48.5279 71.4791 48.5279C73.1124 48.5279 74.6291 48.1446 76.0291 47.3779C77.4624 46.6113 78.6624 45.5113 79.6291 44.0779H89.0291C87.3624 47.8779 84.8457 50.8779 81.4791 53.0779C78.1124 55.2446 74.3457 56.3279 70.1791 56.3279C67.1791 56.3279 64.5624 55.7446 62.3291 54.5779C60.0957 53.4113 58.3791 51.7613 57.1791 49.6279C55.9791 47.4946 55.3791 45.0113 55.3791 42.1779C55.3791 40.9113 55.4957 39.6779 55.7291 38.4779ZM110.065 56.4279C107.098 56.4279 104.482 55.8113 102.215 54.5779C99.9817 53.3446 98.2483 51.6113 97.015 49.3779C95.7817 47.1446 95.165 44.5779 95.165 41.6779C95.165 37.5779 96.0483 33.9279 97.815 30.7279C99.5817 27.4946 102.032 24.9779 105.165 23.1779C108.332 21.3779 111.915 20.4779 115.915 20.4779C118.915 20.4779 121.548 21.0946 123.815 22.3279C126.082 23.5279 127.832 25.2446 129.065 27.4779C130.298 29.6779 130.915 32.2113 130.915 35.0779C130.915 39.1779 130.032 42.8613 128.265 46.1279C126.498 49.3613 124.032 51.8946 120.865 53.7279C117.698 55.5279 114.098 56.4279 110.065 56.4279ZM111.365 48.5279C113.565 48.5279 115.498 47.9613 117.165 46.8279C118.832 45.6946 120.115 44.1779 121.015 42.2779C121.948 40.3446 122.415 38.2613 122.415 36.0279C122.415 33.6279 121.748 31.7446 120.415 30.3779C119.082 29.0113 117.215 28.3279 114.815 28.3279C112.615 28.3279 110.665 28.8946 108.965 30.0279C107.298 31.1613 105.998 32.6779 105.065 34.5779C104.165 36.4446 103.715 38.5113 103.715 40.7779C103.715 43.1779 104.382 45.0779 105.715 46.4779C107.048 47.8446 108.932 48.5279 111.365 48.5279ZM165.322 56.0779H156.772L146.322 34.4279L142.472 56.0779H133.922L140.122 20.9779H148.672L159.122 42.7279L162.972 20.9779H171.522L165.322 56.0779ZM201.819 20.9779L200.619 27.7279H186.319L185.019 35.2779H195.719L194.519 41.7779H183.819L181.319 56.0779H172.769L178.969 20.9779H201.819ZM218.063 56.4279C215.096 56.4279 212.48 55.8113 210.213 54.5779C207.98 53.3446 206.246 51.6113 205.013 49.3779C203.78 47.1446 203.163 44.5779 203.163 41.6779C203.163 37.5779 204.046 33.9279 205.813 30.7279C207.58 27.4946 210.03 24.9779 213.163 23.1779C216.33 21.3779 219.913 20.4779 223.913 20.4779C226.913 20.4779 229.546 21.0946 231.813 22.3279C234.08 23.5279 235.83 25.2446 237.063 27.4779C238.296 29.6779 238.913 32.2113 238.913 35.0779C238.913 39.1779 238.03 42.8613 236.263 46.1279C234.496 49.3613 232.03 51.8946 228.863 53.7279C225.696 55.5279 222.096 56.4279 218.063 56.4279ZM219.363 48.5279C221.563 48.5279 223.496 47.9613 225.163 46.8279C226.83 45.6946 228.113 44.1779 229.013 42.2779C229.946 40.3446 230.413 38.2613 230.413 36.0279C230.413 33.6279 229.746 31.7446 228.413 30.3779C227.08 29.0113 225.213 28.3279 222.813 28.3279C220.613 28.3279 218.663 28.8946 216.963 30.0279C215.296 31.1613 213.996 32.6779 213.063 34.5779C212.163 36.4446 211.713 38.5113 211.713 40.7779C211.713 43.1779 212.38 45.0779 213.713 46.4779C215.046 47.8446 216.93 48.5279 219.363 48.5279ZM262.47 20.9779C266.103 20.9779 268.87 21.8113 270.77 23.4779C272.67 25.1113 273.62 27.2446 273.62 29.8779C273.62 30.6446 273.553 31.3613 273.42 32.0279C273.02 34.3613 272.003 36.4446 270.37 38.2779C268.736 40.1113 266.553 41.4113 263.82 42.1779L269.47 56.0779H259.82L254.87 42.8279H252.82L250.47 56.0779H241.92L248.12 20.9779H262.47ZM264.67 32.3779C264.736 31.8446 264.77 31.4946 264.77 31.3279C264.77 30.2613 264.42 29.4446 263.72 28.8779C263.053 28.2779 262.053 27.9779 260.72 27.9779H255.42L253.87 36.7779H259.17C260.736 36.7779 261.97 36.3946 262.87 35.6279C263.803 34.8613 264.403 33.7779 264.67 32.3779ZM307.237 20.9779L306.087 27.7279H296.737L291.737 56.0779H283.187L288.187 27.7279H278.887L280.087 20.9779H307.237ZM323.278 56.4279C320.311 56.4279 317.695 55.8113 315.428 54.5779C313.195 53.3446 311.461 51.6113 310.228 49.3779C308.995 47.1446 308.378 44.5779 308.378 41.6779C308.378 37.5779 309.261 33.9279 311.028 30.7279C312.795 27.4946 315.245 24.9779 318.378 23.1779C321.545 21.3779 325.128 20.4779 329.128 20.4779C332.128 20.4779 334.761 21.0946 337.028 22.3279C339.295 23.5279 341.045 25.2446 342.278 27.4779C343.511 29.6779 344.128 32.2113 344.128 35.0779C344.128 39.1779 343.245 42.8613 341.478 46.1279C339.711 49.3613 337.245 51.8946 334.078 53.7279C330.911 55.5279 327.311 56.4279 323.278 56.4279ZM324.578 48.5279C326.778 48.5279 328.711 47.9613 330.378 46.8279C332.045 45.6946 333.328 44.1779 334.228 42.2779C335.161 40.3446 335.628 38.2613 335.628 36.0279C335.628 33.6279 334.961 31.7446 333.628 30.3779C332.295 29.0113 330.428 28.3279 328.028 28.3279C325.828 28.3279 323.878 28.8946 322.178 30.0279C320.511 31.1613 319.211 32.6779 318.278 34.5779C317.378 36.4446 316.928 38.5113 316.928 40.7779C316.928 43.1779 317.595 45.0779 318.928 46.4779C320.261 47.8446 322.145 48.5279 324.578 48.5279ZM397.507 35.0779C397.507 38.9779 396.707 42.5113 395.107 45.6779C393.507 48.8113 391.273 51.2946 388.407 53.1279L394.257 62.0779H383.907L380.557 56.1279C379.323 56.3279 378.023 56.4279 376.657 56.4279C373.69 56.4279 371.073 55.8113 368.807 54.5779C366.573 53.3446 364.84 51.6113 363.607 49.3779C362.373 47.1446 361.757 44.5779 361.757 41.6779C361.757 37.5779 362.64 33.9279 364.407 30.7279C366.173 27.4946 368.623 24.9779 371.757 23.1779C374.923 21.3779 378.507 20.4779 382.507 20.4779C385.507 20.4779 388.14 21.0946 390.407 22.3279C392.673 23.5279 394.423 25.2446 395.657 27.4779C396.89 29.6779 397.507 32.2113 397.507 35.0779ZM370.307 40.7779C370.307 43.1779 370.973 45.0779 372.307 46.4779C373.64 47.8446 375.523 48.5279 377.957 48.5279C380.157 48.5279 382.09 47.9613 383.757 46.8279C385.423 45.6946 386.707 44.1779 387.607 42.2779C388.54 40.3446 389.007 38.2613 389.007 36.0279C389.007 33.6279 388.34 31.7446 387.007 30.3779C385.673 29.0113 383.807 28.3279 381.407 28.3279C379.207 28.3279 377.257 28.8946 375.557 30.0279C373.89 31.1613 372.59 32.6779 371.657 34.5779C370.757 36.4446 370.307 38.5113 370.307 40.7779ZM415.211 20.9779L411.511 41.9279C411.378 42.7946 411.311 43.3946 411.311 43.7279C411.311 45.2613 411.744 46.4446 412.611 47.2779C413.478 48.0779 414.761 48.4779 416.461 48.4779C418.461 48.4779 420.094 47.9113 421.361 46.7779C422.628 45.6446 423.444 44.0279 423.811 41.9279L427.511 20.9779H436.061L432.361 41.9279C431.794 45.0946 430.661 47.7779 428.961 49.9779C427.294 52.1446 425.244 53.7613 422.811 54.8279C420.411 55.8946 417.794 56.4279 414.961 56.4279C411.294 56.4279 408.328 55.4779 406.061 53.5779C403.828 51.6779 402.711 48.9279 402.711 45.3279C402.711 44.2613 402.811 43.1279 403.011 41.9279L406.661 20.9779H415.211ZM450.665 27.7279L449.415 35.0279H460.865L459.715 41.4779H448.265L446.865 49.3279H459.815L458.615 56.0779H437.115L443.315 20.9779H464.815L463.615 27.7279H450.665ZM14.6002 135.428C10.8002 135.428 7.70016 134.611 5.30016 132.978C2.93349 131.311 1.75016 128.961 1.75016 125.928C1.75016 125.628 1.78349 125.178 1.85016 124.578H10.7502C10.6502 125.845 10.9502 126.845 11.6502 127.578C12.3502 128.311 13.4168 128.678 14.8502 128.678C16.1502 128.678 17.1668 128.395 17.9002 127.828C18.6668 127.261 19.0502 126.461 19.0502 125.428C19.0502 124.361 18.5668 123.495 17.6002 122.828C16.6668 122.161 15.2002 121.411 13.2002 120.578C11.2668 119.778 9.68349 119.028 8.45016 118.328C7.25016 117.595 6.20016 116.611 5.30016 115.378C4.40016 114.145 3.95016 112.595 3.95016 110.728C3.91683 108.428 4.48349 106.428 5.65016 104.728C6.81683 103.028 8.43349 101.728 10.5002 100.828C12.5668 99.9279 14.9335 99.4779 17.6002 99.4779C20.0002 99.4779 22.1335 99.8613 24.0002 100.628C25.8668 101.361 27.3168 102.445 28.3502 103.878C29.3835 105.278 29.9002 106.945 29.9002 108.878C29.9002 109.378 29.8835 109.745 29.8502 109.978H20.7502C20.7835 109.845 20.8002 109.645 20.8002 109.378C20.8002 108.445 20.4668 107.695 19.8002 107.128C19.1668 106.528 18.2835 106.228 17.1502 106.228C15.9502 106.228 14.9668 106.528 14.2002 107.128C13.4668 107.695 13.1002 108.478 13.1002 109.478C13.1002 110.478 13.5668 111.328 14.5002 112.028C15.4335 112.695 16.8835 113.478 18.8502 114.378C20.8168 115.278 22.4168 116.111 23.6502 116.878C24.9168 117.645 26.0002 118.678 26.9002 119.978C27.8002 121.245 28.2502 122.811 28.2502 124.678C28.2502 126.745 27.7002 128.595 26.6002 130.228C25.5002 131.861 23.9168 133.145 21.8502 134.078C19.7835 134.978 17.3668 135.428 14.6002 135.428ZM46.5537 106.728L45.3037 114.028H56.7537L55.6037 120.478H44.1537L42.7537 128.328H55.7037L54.5037 135.078H33.0037L39.2037 99.9779H60.7037L59.5037 106.728H46.5537ZM75.9045 99.9779L72.2045 120.928C72.0711 121.795 72.0045 122.395 72.0045 122.728C72.0045 124.261 72.4378 125.445 73.3045 126.278C74.1711 127.078 75.4545 127.478 77.1545 127.478C79.1545 127.478 80.7878 126.911 82.0545 125.778C83.3211 124.645 84.1378 123.028 84.5045 120.928L88.2045 99.9779H96.7545L93.0545 120.928C92.4878 124.095 91.3545 126.778 89.6545 128.978C87.9878 131.145 85.9378 132.761 83.5045 133.828C81.1045 134.895 78.4878 135.428 75.6545 135.428C71.9878 135.428 69.0211 134.478 66.7545 132.578C64.5211 130.678 63.4045 127.928 63.4045 124.328C63.4045 123.261 63.5045 122.128 63.7045 120.928L67.3545 99.9779H75.9045ZM111.758 135.428C107.958 135.428 104.858 134.611 102.458 132.978C100.092 131.311 98.9084 128.961 98.9084 125.928C98.9084 125.628 98.9417 125.178 99.0084 124.578H107.908C107.808 125.845 108.108 126.845 108.808 127.578C109.508 128.311 110.575 128.678 112.008 128.678C113.308 128.678 114.325 128.395 115.058 127.828C115.825 127.261 116.208 126.461 116.208 125.428C116.208 124.361 115.725 123.495 114.758 122.828C113.825 122.161 112.358 121.411 110.358 120.578C108.425 119.778 106.842 119.028 105.608 118.328C104.408 117.595 103.358 116.611 102.458 115.378C101.558 114.145 101.108 112.595 101.108 110.728C101.075 108.428 101.642 106.428 102.808 104.728C103.975 103.028 105.592 101.728 107.658 100.828C109.725 99.9279 112.092 99.4779 114.758 99.4779C117.158 99.4779 119.292 99.8613 121.158 100.628C123.025 101.361 124.475 102.445 125.508 103.878C126.542 105.278 127.058 106.945 127.058 108.878C127.058 109.378 127.042 109.745 127.008 109.978H117.908C117.942 109.845 117.958 109.645 117.958 109.378C117.958 108.445 117.625 107.695 116.958 107.128C116.325 106.528 115.442 106.228 114.308 106.228C113.108 106.228 112.125 106.528 111.358 107.128C110.625 107.695 110.258 108.478 110.258 109.478C110.258 110.478 110.725 111.328 111.658 112.028C112.592 112.695 114.042 113.478 116.008 114.378C117.975 115.278 119.575 116.111 120.808 116.878C122.075 117.645 123.158 118.678 124.058 119.978C124.958 121.245 125.408 122.811 125.408 124.678C125.408 126.745 124.858 128.595 123.758 130.228C122.658 131.861 121.075 133.145 119.008 134.078C116.942 134.978 114.525 135.428 111.758 135.428ZM173.934 111.278C173.601 113.311 172.817 115.178 171.584 116.878C170.351 118.545 168.667 119.895 166.534 120.928C164.434 121.961 161.951 122.478 159.084 122.478H153.784L151.534 135.078H142.984L149.184 99.9779H163.034C166.701 99.9779 169.467 100.795 171.334 102.428C173.201 104.028 174.134 106.211 174.134 108.978C174.134 109.811 174.067 110.578 173.934 111.278ZM159.584 115.778C162.784 115.778 164.667 114.278 165.234 111.278C165.301 110.745 165.334 110.361 165.334 110.128C165.334 109.061 164.984 108.245 164.284 107.678C163.617 107.078 162.584 106.778 161.184 106.778H156.534L154.984 115.778H159.584ZM188.985 106.728L187.735 114.028H199.185L198.035 120.478H186.585L185.185 128.328H198.135L196.935 135.078H175.435L181.635 99.9779H203.135L201.935 106.728H188.985ZM199.285 92.9279L186.285 97.9779L187.335 92.0779L200.435 86.2779L199.285 92.9279ZM217.686 135.428C213.886 135.428 210.786 134.611 208.386 132.978C206.019 131.311 204.836 128.961 204.836 125.928C204.836 125.628 204.869 125.178 204.936 124.578H213.836C213.736 125.845 214.036 126.845 214.736 127.578C215.436 128.311 216.503 128.678 217.936 128.678C219.236 128.678 220.253 128.395 220.986 127.828C221.753 127.261 222.136 126.461 222.136 125.428C222.136 124.361 221.653 123.495 220.686 122.828C219.753 122.161 218.286 121.411 216.286 120.578C214.353 119.778 212.769 119.028 211.536 118.328C210.336 117.595 209.286 116.611 208.386 115.378C207.486 114.145 207.036 112.595 207.036 110.728C207.003 108.428 207.569 106.428 208.736 104.728C209.903 103.028 211.519 101.728 213.586 100.828C215.653 99.9279 218.019 99.4779 220.686 99.4779C223.086 99.4779 225.219 99.8613 227.086 100.628C228.953 101.361 230.403 102.445 231.436 103.878C232.469 105.278 232.986 106.945 232.986 108.878C232.986 109.378 232.969 109.745 232.936 109.978H223.836C223.869 109.845 223.886 109.645 223.886 109.378C223.886 108.445 223.553 107.695 222.886 107.128C222.253 106.528 221.369 106.228 220.236 106.228C219.036 106.228 218.053 106.528 217.286 107.128C216.553 107.695 216.186 108.478 216.186 109.478C216.186 110.478 216.653 111.328 217.586 112.028C218.519 112.695 219.969 113.478 221.936 114.378C223.903 115.278 225.503 116.111 226.736 116.878C228.003 117.645 229.086 118.678 229.986 119.978C230.886 121.245 231.336 122.811 231.336 124.678C231.336 126.745 230.786 128.595 229.686 130.228C228.586 131.861 227.003 133.145 224.936 134.078C222.869 134.978 220.453 135.428 217.686 135.428ZM279.862 111.278C279.529 113.311 278.745 115.178 277.512 116.878C276.279 118.545 274.595 119.895 272.462 120.928C270.362 121.961 267.879 122.478 265.012 122.478H259.712L257.462 135.078H248.912L255.112 99.9779H268.962C272.629 99.9779 275.395 100.795 277.262 102.428C279.129 104.028 280.062 106.211 280.062 108.978C280.062 109.811 279.995 110.578 279.862 111.278ZM265.512 115.778C268.712 115.778 270.595 114.278 271.162 111.278C271.229 110.745 271.262 110.361 271.262 110.128C271.262 109.061 270.912 108.245 270.212 107.678C269.545 107.078 268.512 106.778 267.112 106.778H262.462L260.912 115.778H265.512ZM301.913 99.9779C305.546 99.9779 308.313 100.811 310.213 102.478C312.113 104.111 313.063 106.245 313.063 108.878C313.063 109.645 312.996 110.361 312.863 111.028C312.463 113.361 311.446 115.445 309.813 117.278C308.18 119.111 305.996 120.411 303.263 121.178L308.913 135.078H299.263L294.313 121.828H292.263L289.913 135.078H281.363L287.563 99.9779H301.913ZM304.113 111.378C304.18 110.845 304.213 110.495 304.213 110.328C304.213 109.261 303.863 108.445 303.163 107.878C302.496 107.278 301.496 106.978 300.163 106.978H294.863L293.313 115.778H298.613C300.18 115.778 301.413 115.395 302.313 114.628C303.246 113.861 303.846 112.778 304.113 111.378ZM328.78 106.728L327.53 114.028H338.98L337.83 120.478H326.38L324.98 128.328H337.93L336.73 135.078H315.23L321.43 99.9779H342.93L341.73 106.728H328.78ZM345.231 117.478C345.831 114.011 347.114 110.928 349.081 108.228C351.081 105.495 353.548 103.378 356.481 101.878C359.414 100.345 362.581 99.5779 365.981 99.5779C370.148 99.5779 373.514 100.678 376.081 102.878C378.681 105.078 380.148 108.078 380.481 111.878H371.081C370.648 110.445 369.848 109.361 368.681 108.628C367.548 107.861 366.148 107.478 364.481 107.478C361.848 107.478 359.564 108.395 357.631 110.228C355.698 112.028 354.464 114.445 353.931 117.478C353.764 118.411 353.681 119.228 353.681 119.928C353.681 122.261 354.331 124.111 355.631 125.478C356.931 126.845 358.714 127.528 360.981 127.528C362.614 127.528 364.131 127.145 365.531 126.378C366.964 125.611 368.164 124.511 369.131 123.078H378.531C376.864 126.878 374.348 129.878 370.981 132.078C367.614 134.245 363.848 135.328 359.681 135.328C356.681 135.328 354.064 134.745 351.831 133.578C349.598 132.411 347.881 130.761 346.681 128.628C345.481 126.495 344.881 124.011 344.881 121.178C344.881 119.911 344.998 118.678 345.231 117.478ZM397.617 99.9779L391.417 135.078H382.867L389.067 99.9779H397.617ZM412.813 135.428C409.013 135.428 405.913 134.611 403.513 132.978C401.146 131.311 399.963 128.961 399.963 125.928C399.963 125.628 399.996 125.178 400.063 124.578H408.963C408.863 125.845 409.163 126.845 409.863 127.578C410.563 128.311 411.63 128.678 413.063 128.678C414.363 128.678 415.38 128.395 416.113 127.828C416.88 127.261 417.263 126.461 417.263 125.428C417.263 124.361 416.78 123.495 415.813 122.828C414.88 122.161 413.413 121.411 411.413 120.578C409.48 119.778 407.896 119.028 406.663 118.328C405.463 117.595 404.413 116.611 403.513 115.378C402.613 114.145 402.163 112.595 402.163 110.728C402.13 108.428 402.696 106.428 403.863 104.728C405.03 103.028 406.646 101.728 408.713 100.828C410.78 99.9279 413.146 99.4779 415.813 99.4779C418.213 99.4779 420.346 99.8613 422.213 100.628C424.08 101.361 425.53 102.445 426.563 103.878C427.596 105.278 428.113 106.945 428.113 108.878C428.113 109.378 428.096 109.745 428.063 109.978H418.963C418.996 109.845 419.013 109.645 419.013 109.378C419.013 108.445 418.68 107.695 418.013 107.128C417.38 106.528 416.496 106.228 415.363 106.228C414.163 106.228 413.18 106.528 412.413 107.128C411.68 107.695 411.313 108.478 411.313 109.478C411.313 110.478 411.78 111.328 412.713 112.028C413.646 112.695 415.096 113.478 417.063 114.378C419.03 115.278 420.63 116.111 421.863 116.878C423.13 117.645 424.213 118.678 425.113 119.978C426.013 121.245 426.463 122.811 426.463 124.678C426.463 126.745 425.913 128.595 424.813 130.228C423.713 131.861 422.13 133.145 420.063 134.078C417.996 134.978 415.58 135.428 412.813 135.428ZM454.167 128.878H441.067L437.867 135.078H428.917L447.817 99.9779H457.717L464.217 135.078H455.167L454.167 128.878ZM453.167 122.378L451.117 109.378L444.417 122.378H453.167ZM515.282 99.9779L509.082 135.078H500.532L504.282 114.028L492.682 135.078H485.782L481.582 113.928L477.882 135.078H469.332L475.532 99.9779H485.632L491.232 124.278L505.232 99.9779H515.282ZM527.63 126.978L519.53 141.478H513.93L518.93 126.978H527.63ZM2.35016 196.478C2.95016 193.011 4.23349 189.928 6.20016 187.228C8.20016 184.495 10.6668 182.378 13.6002 180.878C16.5335 179.345 19.7002 178.578 23.1002 178.578C27.2668 178.578 30.6335 179.678 33.2002 181.878C35.8002 184.078 37.2668 187.078 37.6002 190.878H28.2002C27.7668 189.445 26.9668 188.361 25.8002 187.628C24.6668 186.861 23.2668 186.478 21.6002 186.478C18.9668 186.478 16.6835 187.395 14.7502 189.228C12.8168 191.028 11.5835 193.445 11.0502 196.478C10.8835 197.411 10.8002 198.228 10.8002 198.928C10.8002 201.261 11.4502 203.111 12.7502 204.478C14.0502 205.845 15.8335 206.528 18.1002 206.528C19.7335 206.528 21.2502 206.145 22.6502 205.378C24.0835 204.611 25.2835 203.511 26.2502 202.078H35.6502C33.9835 205.878 31.4668 208.878 28.1002 211.078C24.7335 213.245 20.9668 214.328 16.8002 214.328C13.8002 214.328 11.1835 213.745 8.95016 212.578C6.71683 211.411 5.00016 209.761 3.80016 207.628C2.60016 205.495 2.00016 203.011 2.00016 200.178C2.00016 198.911 2.11683 197.678 2.35016 196.478ZM56.6861 214.428C53.7194 214.428 51.1028 213.811 48.8361 212.578C46.6028 211.345 44.8694 209.611 43.6361 207.378C42.4028 205.145 41.7861 202.578 41.7861 199.678C41.7861 195.578 42.6694 191.928 44.4361 188.728C46.2028 185.495 48.6528 182.978 51.7861 181.178C54.9528 179.378 58.5361 178.478 62.5361 178.478C65.5361 178.478 68.1694 179.095 70.4361 180.328C72.7028 181.528 74.4528 183.245 75.6861 185.478C76.9194 187.678 77.5361 190.211 77.5361 193.078C77.5361 197.178 76.6528 200.861 74.8861 204.128C73.1194 207.361 70.6528 209.895 67.4861 211.728C64.3194 213.528 60.7194 214.428 56.6861 214.428ZM57.9861 206.528C60.1861 206.528 62.1194 205.961 63.7861 204.828C65.4528 203.695 66.7361 202.178 67.6361 200.278C68.5694 198.345 69.0361 196.261 69.0361 194.028C69.0361 191.628 68.3694 189.745 67.0361 188.378C65.7028 187.011 63.8361 186.328 61.4361 186.328C59.2361 186.328 57.2861 186.895 55.5861 188.028C53.9194 189.161 52.6194 190.678 51.6861 192.578C50.7861 194.445 50.3361 196.511 50.3361 198.778C50.3361 201.178 51.0028 203.078 52.3361 204.478C53.6694 205.845 55.5528 206.528 57.9861 206.528ZM126.493 178.978L120.293 214.078H111.743L115.493 193.028L103.893 214.078H96.9927L92.7927 192.928L89.0927 214.078H80.5427L86.7427 178.978H96.8427L102.443 203.278L116.443 178.978H126.493ZM163.463 207.878H150.363L147.163 214.078H138.213L157.113 178.978H167.013L173.513 214.078H164.463L163.463 207.878ZM162.463 201.378L160.413 188.378L153.713 201.378H162.463ZM229.001 193.078C229.001 196.978 228.201 200.511 226.601 203.678C225.001 206.811 222.768 209.295 219.901 211.128L225.751 220.078H215.401L212.051 214.128C210.818 214.328 209.518 214.428 208.151 214.428C205.184 214.428 202.568 213.811 200.301 212.578C198.068 211.345 196.334 209.611 195.101 207.378C193.868 205.145 193.251 202.578 193.251 199.678C193.251 195.578 194.134 191.928 195.901 188.728C197.668 185.495 200.118 182.978 203.251 181.178C206.418 179.378 210.001 178.478 214.001 178.478C217.001 178.478 219.634 179.095 221.901 180.328C224.168 181.528 225.918 183.245 227.151 185.478C228.384 187.678 229.001 190.211 229.001 193.078ZM201.801 198.778C201.801 201.178 202.468 203.078 203.801 204.478C205.134 205.845 207.018 206.528 209.451 206.528C211.651 206.528 213.584 205.961 215.251 204.828C216.918 203.695 218.201 202.178 219.101 200.278C220.034 198.345 220.501 196.261 220.501 194.028C220.501 191.628 219.834 189.745 218.501 188.378C217.168 187.011 215.301 186.328 212.901 186.328C210.701 186.328 208.751 186.895 207.051 188.028C205.384 189.161 204.084 190.678 203.151 192.578C202.251 194.445 201.801 196.511 201.801 198.778ZM246.705 178.978L243.005 199.928C242.872 200.795 242.805 201.395 242.805 201.728C242.805 203.261 243.239 204.445 244.105 205.278C244.972 206.078 246.255 206.478 247.955 206.478C249.955 206.478 251.589 205.911 252.855 204.778C254.122 203.645 254.939 202.028 255.305 199.928L259.005 178.978H267.555L263.855 199.928C263.289 203.095 262.155 205.778 260.455 207.978C258.789 210.145 256.739 211.761 254.305 212.828C251.905 213.895 249.289 214.428 246.455 214.428C242.789 214.428 239.822 213.478 237.555 211.578C235.322 209.678 234.205 206.928 234.205 203.328C234.205 202.261 234.305 201.128 234.505 199.928L238.155 178.978H246.705ZM291.559 207.878H278.459L275.259 214.078H266.309L285.209 178.978H295.109L301.609 214.078H292.559L291.559 207.878ZM290.559 201.378L288.509 188.378L281.809 201.378H290.559ZM316.424 207.578H327.624L326.474 214.078H306.724L312.924 178.978H321.474L316.424 207.578ZM346.553 178.978L340.353 214.078H331.803L338.003 178.978H346.553ZM367.149 178.978C370.382 178.978 373.165 179.561 375.499 180.728C377.865 181.861 379.665 183.478 380.899 185.578C382.165 187.645 382.799 190.078 382.799 192.878C382.799 193.845 382.682 195.061 382.449 196.528C381.849 199.961 380.549 203.011 378.549 205.678C376.582 208.345 374.065 210.411 370.999 211.878C367.965 213.345 364.615 214.078 360.949 214.078H347.799L353.999 178.978H367.149ZM361.699 206.778C364.932 206.778 367.615 205.878 369.749 204.078C371.882 202.278 373.215 199.761 373.749 196.528C373.915 195.528 373.999 194.695 373.999 194.028C373.999 191.561 373.249 189.661 371.749 188.328C370.249 186.961 368.115 186.278 365.349 186.278H361.249L357.649 206.778H361.699ZM408.327 207.878H395.227L392.027 214.078H383.077L401.977 178.978H411.877L418.377 214.078H409.327L408.327 207.878ZM407.327 201.378L405.277 188.378L398.577 201.378H407.327ZM442.842 178.978C446.075 178.978 448.859 179.561 451.192 180.728C453.559 181.861 455.359 183.478 456.592 185.578C457.859 187.645 458.492 190.078 458.492 192.878C458.492 193.845 458.375 195.061 458.142 196.528C457.542 199.961 456.242 203.011 454.242 205.678C452.275 208.345 449.759 210.411 446.692 211.878C443.659 213.345 440.309 214.078 436.642 214.078H423.492L429.692 178.978H442.842ZM437.392 206.778C440.625 206.778 443.309 205.878 445.442 204.078C447.575 202.278 448.909 199.761 449.442 196.528C449.609 195.528 449.692 194.695 449.692 194.028C449.692 191.561 448.942 189.661 447.442 188.328C445.942 186.961 443.809 186.278 441.042 186.278H436.942L433.342 206.778H437.392ZM474.62 185.728L473.37 193.028H484.82L483.67 199.478H472.22L470.82 207.328H483.77L482.57 214.078H461.07L467.27 178.978H488.77L487.57 185.728H474.62ZM38.2002 272.078C38.2002 275.978 37.4002 279.511 35.8002 282.678C34.2002 285.811 31.9668 288.295 29.1002 290.128L34.9502 299.078H24.6002L21.2502 293.128C20.0168 293.328 18.7168 293.428 17.3502 293.428C14.3835 293.428 11.7668 292.811 9.50016 291.578C7.26683 290.345 5.53349 288.611 4.30016 286.378C3.06683 284.145 2.45016 281.578 2.45016 278.678C2.45016 274.578 3.33349 270.928 5.10016 267.728C6.86683 264.495 9.31683 261.978 12.4502 260.178C15.6168 258.378 19.2002 257.478 23.2002 257.478C26.2002 257.478 28.8335 258.095 31.1002 259.328C33.3668 260.528 35.1168 262.245 36.3502 264.478C37.5835 266.678 38.2002 269.211 38.2002 272.078ZM11.0002 277.778C11.0002 280.178 11.6668 282.078 13.0002 283.478C14.3335 284.845 16.2168 285.528 18.6502 285.528C20.8502 285.528 22.7835 284.961 24.4502 283.828C26.1168 282.695 27.4002 281.178 28.3002 279.278C29.2335 277.345 29.7002 275.261 29.7002 273.028C29.7002 270.628 29.0335 268.745 27.7002 267.378C26.3668 266.011 24.5002 265.328 22.1002 265.328C19.9002 265.328 17.9502 265.895 16.2502 267.028C14.5835 268.161 13.2835 269.678 12.3502 271.578C11.4502 273.445 11.0002 275.511 11.0002 277.778ZM55.9045 257.978L52.2045 278.928C52.0711 279.795 52.0045 280.395 52.0045 280.728C52.0045 282.261 52.4378 283.445 53.3045 284.278C54.1711 285.078 55.4545 285.478 57.1545 285.478C59.1545 285.478 60.7878 284.911 62.0545 283.778C63.3211 282.645 64.1378 281.028 64.5045 278.928L68.2045 257.978H76.7545L73.0545 278.928C72.4878 282.095 71.3545 284.778 69.6545 286.978C67.9878 289.145 65.9378 290.761 63.5045 291.828C61.1045 292.895 58.4878 293.428 55.6545 293.428C51.9878 293.428 49.0211 292.478 46.7545 290.578C44.5211 288.678 43.4045 285.928 43.4045 282.328C43.4045 281.261 43.5045 280.128 43.7045 278.928L47.3545 257.978H55.9045ZM91.3584 264.728L90.1084 272.028H101.558L100.408 278.478H88.9584L87.5584 286.328H100.508L99.3084 293.078H77.8084L84.0084 257.978H105.508L104.308 264.728H91.3584ZM131.581 257.978L135.631 284.478L148.981 257.978H158.081L139.431 293.078H128.731L122.481 257.978H131.581ZM173.405 293.428C170.438 293.428 167.822 292.811 165.555 291.578C163.322 290.345 161.588 288.611 160.355 286.378C159.122 284.145 158.505 281.578 158.505 278.678C158.505 274.578 159.388 270.928 161.155 267.728C162.922 264.495 165.372 261.978 168.505 260.178C171.672 258.378 175.255 257.478 179.255 257.478C182.255 257.478 184.888 258.095 187.155 259.328C189.422 260.528 191.172 262.245 192.405 264.478C193.638 266.678 194.255 269.211 194.255 272.078C194.255 276.178 193.372 279.861 191.605 283.128C189.838 286.361 187.372 288.895 184.205 290.728C181.038 292.528 177.438 293.428 173.405 293.428ZM174.705 285.528C176.905 285.528 178.838 284.961 180.505 283.828C182.172 282.695 183.455 281.178 184.355 279.278C185.288 277.345 185.755 275.261 185.755 273.028C185.755 270.628 185.088 268.745 183.755 267.378C182.422 266.011 180.555 265.328 178.155 265.328C175.955 265.328 174.005 265.895 172.305 267.028C170.638 268.161 169.338 269.678 168.405 271.578C167.505 273.445 167.055 275.511 167.055 277.778C167.055 280.178 167.722 282.078 169.055 283.478C170.388 284.845 172.272 285.528 174.705 285.528ZM198.961 275.478C199.561 272.011 200.845 268.928 202.811 266.228C204.811 263.495 207.278 261.378 210.211 259.878C213.145 258.345 216.311 257.578 219.711 257.578C223.878 257.578 227.245 258.678 229.811 260.878C232.411 263.078 233.878 266.078 234.211 269.878H224.811C224.378 268.445 223.578 267.361 222.411 266.628C221.278 265.861 219.878 265.478 218.211 265.478C215.578 265.478 213.295 266.395 211.361 268.228C209.428 270.028 208.195 272.445 207.661 275.478C207.495 276.411 207.411 277.228 207.411 277.928C207.411 280.261 208.061 282.111 209.361 283.478C210.661 284.845 212.445 285.528 214.711 285.528C216.345 285.528 217.861 285.145 219.261 284.378C220.695 283.611 221.895 282.511 222.861 281.078H232.261C230.595 284.878 228.078 287.878 224.711 290.078C221.345 292.245 217.578 293.328 213.411 293.328C210.411 293.328 207.795 292.745 205.561 291.578C203.328 290.411 201.611 288.761 200.411 286.628C199.211 284.495 198.611 282.011 198.611 279.178C198.611 277.911 198.728 276.678 198.961 275.478ZM250.147 264.728L248.897 272.028H260.347L259.197 278.478H247.747L246.347 286.328H259.297L258.097 293.078H236.597L242.797 257.978H264.297L263.097 264.728H250.147ZM254.447 251.728L245.897 256.078L246.947 250.178L255.447 245.978L262.447 250.178L261.397 256.078L254.447 251.728ZM323.67 257.978L317.47 293.078H308.92L312.67 272.028L301.07 293.078H294.17L289.97 271.928L286.27 293.078H277.72L283.92 257.978H294.02L299.62 282.278L313.62 257.978H323.67ZM338.419 264.728L337.169 272.028H348.619L347.469 278.478H336.019L334.619 286.328H347.569L346.369 293.078H324.869L331.069 257.978H352.569L351.369 264.728H338.419ZM373.72 257.978C377.353 257.978 380.12 258.811 382.02 260.478C383.92 262.111 384.87 264.245 384.87 266.878C384.87 267.645 384.803 268.361 384.67 269.028C384.27 271.361 383.253 273.445 381.62 275.278C379.986 277.111 377.803 278.411 375.07 279.178L380.72 293.078H371.07L366.12 279.828H364.07L361.72 293.078H353.17L359.37 257.978H373.72ZM375.92 269.378C375.986 268.845 376.02 268.495 376.02 268.328C376.02 267.261 375.67 266.445 374.97 265.878C374.303 265.278 373.303 264.978 371.97 264.978H366.67L365.12 273.778H370.42C371.986 273.778 373.22 273.395 374.12 272.628C375.053 271.861 375.653 270.778 375.92 269.378ZM400.587 264.728L399.337 272.028H410.787L409.637 278.478H398.187L396.787 286.328H409.737L408.537 293.078H387.037L393.237 257.978H414.737L413.537 264.728H400.587ZM417.038 275.478C417.638 272.011 418.921 268.928 420.888 266.228C422.888 263.495 425.354 261.378 428.288 259.878C431.221 258.345 434.388 257.578 437.788 257.578C441.954 257.578 445.321 258.678 447.888 260.878C450.488 263.078 451.954 266.078 452.288 269.878H442.888C442.454 268.445 441.654 267.361 440.488 266.628C439.354 265.861 437.954 265.478 436.288 265.478C433.654 265.478 431.371 266.395 429.438 268.228C427.504 270.028 426.271 272.445 425.738 275.478C425.571 276.411 425.488 277.228 425.488 277.928C425.488 280.261 426.138 282.111 427.438 283.478C428.738 284.845 430.521 285.528 432.788 285.528C434.421 285.528 435.938 285.145 437.338 284.378C438.771 283.611 439.971 282.511 440.938 281.078H450.338C448.671 284.878 446.154 287.878 442.788 290.078C439.421 292.245 435.654 293.328 431.488 293.328C428.488 293.328 425.871 292.745 423.638 291.578C421.404 290.411 419.688 288.761 418.488 286.628C417.288 284.495 416.688 282.011 416.688 279.178C416.688 277.911 416.804 276.678 417.038 275.478ZM468.224 264.728L466.974 272.028H478.424L477.274 278.478H465.824L464.424 286.328H477.374L476.174 293.078H454.674L460.874 257.978H482.374L481.174 264.728H468.224ZM486.924 293.478C485.591 293.478 484.524 293.128 483.724 292.428C482.958 291.695 482.574 290.778 482.574 289.678C482.574 288.145 483.141 286.845 484.274 285.778C485.441 284.711 486.874 284.178 488.574 284.178C489.874 284.178 490.908 284.545 491.674 285.278C492.441 285.978 492.824 286.895 492.824 288.028C492.824 289.528 492.241 290.811 491.074 291.878C489.941 292.945 488.558 293.478 486.924 293.478Z" fill="#00FFFF"/>
<path d="M21.25 56.4279C18.2833 56.4279 15.6667 55.8113 13.4 54.5779C11.1667 53.3446 9.43333 51.6113 8.2 49.3779C6.96667 47.1446 6.35 44.5779 6.35 41.6779C6.35 37.5779 7.23333 33.9279 9 30.7279C10.7667 27.4946 13.2167 24.9779 16.35 23.1779C19.5167 21.3779 23.1 20.4779 27.1 20.4779C30.1 20.4779 32.7333 21.0946 35 22.3279C37.2667 23.5279 39.0167 25.2446 40.25 27.4779C41.4833 29.6779 42.1 32.2113 42.1 35.0779C42.1 39.1779 41.2167 42.8613 39.45 46.1279C37.6833 49.3613 35.2167 51.8946 32.05 53.7279C28.8833 55.5279 25.2833 56.4279 21.25 56.4279ZM22.55 48.5279C24.75 48.5279 26.6833 47.9613 28.35 46.8279C30.0167 45.6946 31.3 44.1779 32.2 42.2779C33.1333 40.3446 33.6 38.2613 33.6 36.0279C33.6 33.6279 32.9333 31.7446 31.6 30.3779C30.2667 29.0113 28.4 28.3279 26 28.3279C23.8 28.3279 21.85 28.8946 20.15 30.0279C18.4833 31.1613 17.1833 32.6779 16.25 34.5779C15.35 36.4446 14.9 38.5113 14.9 40.7779C14.9 43.1779 15.5667 45.0779 16.9 46.4779C18.2333 47.8446 20.1167 48.5279 22.55 48.5279ZM59.6289 38.4779C60.2289 35.0113 61.5122 31.9279 63.4789 29.2279C65.4789 26.4946 67.9456 24.3779 70.8789 22.8779C73.8122 21.3446 76.9789 20.5779 80.3789 20.5779C84.5456 20.5779 87.9122 21.6779 90.4789 23.8779C93.0789 26.0779 94.5456 29.0779 94.8789 32.8779H85.4789C85.0456 31.4446 84.2456 30.3613 83.0789 29.6279C81.9456 28.8613 80.5456 28.4779 78.8789 28.4779C76.2456 28.4779 73.9622 29.3946 72.0289 31.2279C70.0956 33.0279 68.8622 35.4446 68.3289 38.4779C68.1622 39.4113 68.0789 40.2279 68.0789 40.9279C68.0789 43.2613 68.7289 45.1113 70.0289 46.4779C71.3289 47.8446 73.1122 48.5279 75.3789 48.5279C77.0122 48.5279 78.5289 48.1446 79.9289 47.3779C81.3622 46.6113 82.5622 45.5113 83.5289 44.0779H92.9289C91.2622 47.8779 88.7456 50.8779 85.3789 53.0779C82.0122 55.2446 78.2456 56.3279 74.0789 56.3279C71.0789 56.3279 68.4622 55.7446 66.2289 54.5779C63.9956 53.4113 62.2789 51.7613 61.0789 49.6279C59.8789 47.4946 59.2789 45.0113 59.2789 42.1779C59.2789 40.9113 59.3956 39.6779 59.6289 38.4779ZM113.965 56.4279C110.998 56.4279 108.382 55.8113 106.115 54.5779C103.882 53.3446 102.148 51.6113 100.915 49.3779C99.6815 47.1446 99.0648 44.5779 99.0648 41.6779C99.0648 37.5779 99.9482 33.9279 101.715 30.7279C103.482 27.4946 105.932 24.9779 109.065 23.1779C112.232 21.3779 115.815 20.4779 119.815 20.4779C122.815 20.4779 125.448 21.0946 127.715 22.3279C129.982 23.5279 131.732 25.2446 132.965 27.4779C134.198 29.6779 134.815 32.2113 134.815 35.0779C134.815 39.1779 133.932 42.8613 132.165 46.1279C130.398 49.3613 127.932 51.8946 124.765 53.7279C121.598 55.5279 117.998 56.4279 113.965 56.4279ZM115.265 48.5279C117.465 48.5279 119.398 47.9613 121.065 46.8279C122.732 45.6946 124.015 44.1779 124.915 42.2779C125.848 40.3446 126.315 38.2613 126.315 36.0279C126.315 33.6279 125.648 31.7446 124.315 30.3779C122.982 29.0113 121.115 28.3279 118.715 28.3279C116.515 28.3279 114.565 28.8946 112.865 30.0279C111.198 31.1613 109.898 32.6779 108.965 34.5779C108.065 36.4446 107.615 38.5113 107.615 40.7779C107.615 43.1779 108.282 45.0779 109.615 46.4779C110.948 47.8446 112.832 48.5279 115.265 48.5279ZM169.221 56.0779H160.671L150.221 34.4279L146.371 56.0779H137.821L144.021 20.9779H152.571L163.021 42.7279L166.871 20.9779H175.421L169.221 56.0779ZM205.719 20.9779L204.519 27.7279H190.219L188.919 35.2779H199.619L198.419 41.7779H187.719L185.219 56.0779H176.669L182.869 20.9779H205.719ZM221.963 56.4279C218.996 56.4279 216.38 55.8113 214.113 54.5779C211.88 53.3446 210.146 51.6113 208.913 49.3779C207.68 47.1446 207.063 44.5779 207.063 41.6779C207.063 37.5779 207.946 33.9279 209.713 30.7279C211.48 27.4946 213.93 24.9779 217.063 23.1779C220.23 21.3779 223.813 20.4779 227.813 20.4779C230.813 20.4779 233.446 21.0946 235.713 22.3279C237.98 23.5279 239.73 25.2446 240.963 27.4779C242.196 29.6779 242.813 32.2113 242.813 35.0779C242.813 39.1779 241.93 42.8613 240.163 46.1279C238.396 49.3613 235.93 51.8946 232.763 53.7279C229.596 55.5279 225.996 56.4279 221.963 56.4279ZM223.263 48.5279C225.463 48.5279 227.396 47.9613 229.063 46.8279C230.73 45.6946 232.013 44.1779 232.913 42.2779C233.846 40.3446 234.313 38.2613 234.313 36.0279C234.313 33.6279 233.646 31.7446 232.313 30.3779C230.98 29.0113 229.113 28.3279 226.713 28.3279C224.513 28.3279 222.563 28.8946 220.863 30.0279C219.196 31.1613 217.896 32.6779 216.963 34.5779C216.063 36.4446 215.613 38.5113 215.613 40.7779C215.613 43.1779 216.28 45.0779 217.613 46.4779C218.946 47.8446 220.83 48.5279 223.263 48.5279ZM266.37 20.9779C270.003 20.9779 272.77 21.8113 274.67 23.4779C276.57 25.1113 277.52 27.2446 277.52 29.8779C277.52 30.6446 277.453 31.3613 277.32 32.0279C276.92 34.3613 275.903 36.4446 274.27 38.2779C272.636 40.1113 270.453 41.4113 267.72 42.1779L273.37 56.0779H263.72L258.77 42.8279H256.72L254.37 56.0779H245.82L252.02 20.9779H266.37ZM268.57 32.3779C268.636 31.8446 268.67 31.4946 268.67 31.3279C268.67 30.2613 268.32 29.4446 267.62 28.8779C266.953 28.2779 265.953 27.9779 264.62 27.9779H259.32L257.77 36.7779H263.07C264.636 36.7779 265.87 36.3946 266.77 35.6279C267.703 34.8613 268.303 33.7779 268.57 32.3779ZM311.137 20.9779L309.987 27.7279H300.637L295.637 56.0779H287.087L292.087 27.7279H282.787L283.987 20.9779H311.137ZM327.178 56.4279C324.211 56.4279 321.594 55.8113 319.328 54.5779C317.094 53.3446 315.361 51.6113 314.128 49.3779C312.894 47.1446 312.278 44.5779 312.278 41.6779C312.278 37.5779 313.161 33.9279 314.928 30.7279C316.694 27.4946 319.144 24.9779 322.278 23.1779C325.444 21.3779 329.028 20.4779 333.028 20.4779C336.028 20.4779 338.661 21.0946 340.928 22.3279C343.194 23.5279 344.944 25.2446 346.178 27.4779C347.411 29.6779 348.028 32.2113 348.028 35.0779C348.028 39.1779 347.144 42.8613 345.378 46.1279C343.611 49.3613 341.144 51.8946 337.978 53.7279C334.811 55.5279 331.211 56.4279 327.178 56.4279ZM328.478 48.5279C330.678 48.5279 332.611 47.9613 334.278 46.8279C335.944 45.6946 337.228 44.1779 338.128 42.2779C339.061 40.3446 339.528 38.2613 339.528 36.0279C339.528 33.6279 338.861 31.7446 337.528 30.3779C336.194 29.0113 334.328 28.3279 331.928 28.3279C329.728 28.3279 327.778 28.8946 326.078 30.0279C324.411 31.1613 323.111 32.6779 322.178 34.5779C321.278 36.4446 320.828 38.5113 320.828 40.7779C320.828 43.1779 321.494 45.0779 322.828 46.4779C324.161 47.8446 326.044 48.5279 328.478 48.5279ZM401.407 35.0779C401.407 38.9779 400.607 42.5113 399.007 45.6779C397.407 48.8113 395.173 51.2946 392.307 53.1279L398.157 62.0779H387.807L384.457 56.1279C383.223 56.3279 381.923 56.4279 380.557 56.4279C377.59 56.4279 374.973 55.8113 372.707 54.5779C370.473 53.3446 368.74 51.6113 367.507 49.3779C366.273 47.1446 365.657 44.5779 365.657 41.6779C365.657 37.5779 366.54 33.9279 368.307 30.7279C370.073 27.4946 372.523 24.9779 375.657 23.1779C378.823 21.3779 382.407 20.4779 386.407 20.4779C389.407 20.4779 392.04 21.0946 394.307 22.3279C396.573 23.5279 398.323 25.2446 399.557 27.4779C400.79 29.6779 401.407 32.2113 401.407 35.0779ZM374.207 40.7779C374.207 43.1779 374.873 45.0779 376.207 46.4779C377.54 47.8446 379.423 48.5279 381.857 48.5279C384.057 48.5279 385.99 47.9613 387.657 46.8279C389.323 45.6946 390.607 44.1779 391.507 42.2779C392.44 40.3446 392.907 38.2613 392.907 36.0279C392.907 33.6279 392.24 31.7446 390.907 30.3779C389.573 29.0113 387.707 28.3279 385.307 28.3279C383.107 28.3279 381.157 28.8946 379.457 30.0279C377.79 31.1613 376.49 32.6779 375.557 34.5779C374.657 36.4446 374.207 38.5113 374.207 40.7779ZM419.111 20.9779L415.411 41.9279C415.278 42.7946 415.211 43.3946 415.211 43.7279C415.211 45.2613 415.644 46.4446 416.511 47.2779C417.378 48.0779 418.661 48.4779 420.361 48.4779C422.361 48.4779 423.994 47.9113 425.261 46.7779C426.528 45.6446 427.344 44.0279 427.711 41.9279L431.411 20.9779H439.961L436.261 41.9279C435.694 45.0946 434.561 47.7779 432.861 49.9779C431.194 52.1446 429.144 53.7613 426.711 54.8279C424.311 55.8946 421.694 56.4279 418.861 56.4279C415.194 56.4279 412.228 55.4779 409.961 53.5779C407.728 51.6779 406.611 48.9279 406.611 45.3279C406.611 44.2613 406.711 43.1279 406.911 41.9279L410.561 20.9779H419.111ZM454.565 27.7279L453.315 35.0279H464.765L463.615 41.4779H452.165L450.765 49.3279H463.715L462.515 56.0779H441.015L447.215 20.9779H468.715L467.515 27.7279H454.565ZM18.5 135.428C14.7 135.428 11.6 134.611 9.2 132.978C6.83333 131.311 5.65 128.961 5.65 125.928C5.65 125.628 5.68333 125.178 5.75 124.578H14.65C14.55 125.845 14.85 126.845 15.55 127.578C16.25 128.311 17.3167 128.678 18.75 128.678C20.05 128.678 21.0667 128.395 21.8 127.828C22.5667 127.261 22.95 126.461 22.95 125.428C22.95 124.361 22.4667 123.495 21.5 122.828C20.5667 122.161 19.1 121.411 17.1 120.578C15.1667 119.778 13.5833 119.028 12.35 118.328C11.15 117.595 10.1 116.611 9.2 115.378C8.3 114.145 7.85 112.595 7.85 110.728C7.81667 108.428 8.38333 106.428 9.55 104.728C10.7167 103.028 12.3333 101.728 14.4 100.828C16.4667 99.9279 18.8333 99.4779 21.5 99.4779C23.9 99.4779 26.0333 99.8613 27.9 100.628C29.7667 101.361 31.2167 102.445 32.25 103.878C33.2833 105.278 33.8 106.945 33.8 108.878C33.8 109.378 33.7833 109.745 33.75 109.978H24.65C24.6833 109.845 24.7 109.645 24.7 109.378C24.7 108.445 24.3667 107.695 23.7 107.128C23.0667 106.528 22.1833 106.228 21.05 106.228C19.85 106.228 18.8667 106.528 18.1 107.128C17.3667 107.695 17 108.478 17 109.478C17 110.478 17.4667 111.328 18.4 112.028C19.3333 112.695 20.7833 113.478 22.75 114.378C24.7167 115.278 26.3167 116.111 27.55 116.878C28.8167 117.645 29.9 118.678 30.8 119.978C31.7 121.245 32.15 122.811 32.15 124.678C32.15 126.745 31.6 128.595 30.5 130.228C29.4 131.861 27.8167 133.145 25.75 134.078C23.6833 134.978 21.2667 135.428 18.5 135.428ZM50.4535 106.728L49.2035 114.028H60.6535L59.5035 120.478H48.0535L46.6535 128.328H59.6035L58.4035 135.078H36.9035L43.1035 99.9779H64.6035L63.4035 106.728H50.4535ZM79.8043 99.9779L76.1043 120.928C75.971 121.795 75.9043 122.395 75.9043 122.728C75.9043 124.261 76.3376 125.445 77.2043 126.278C78.071 127.078 79.3543 127.478 81.0543 127.478C83.0543 127.478 84.6876 126.911 85.9543 125.778C87.221 124.645 88.0376 123.028 88.4043 120.928L92.1043 99.9779H100.654L96.9543 120.928C96.3876 124.095 95.2543 126.778 93.5543 128.978C91.8876 131.145 89.8376 132.761 87.4043 133.828C85.0043 134.895 82.3876 135.428 79.5543 135.428C75.8876 135.428 72.921 134.478 70.6543 132.578C68.421 130.678 67.3043 127.928 67.3043 124.328C67.3043 123.261 67.4043 122.128 67.6043 120.928L71.2543 99.9779H79.8043ZM115.658 135.428C111.858 135.428 108.758 134.611 106.358 132.978C103.992 131.311 102.808 128.961 102.808 125.928C102.808 125.628 102.842 125.178 102.908 124.578H111.808C111.708 125.845 112.008 126.845 112.708 127.578C113.408 128.311 114.475 128.678 115.908 128.678C117.208 128.678 118.225 128.395 118.958 127.828C119.725 127.261 120.108 126.461 120.108 125.428C120.108 124.361 119.625 123.495 118.658 122.828C117.725 122.161 116.258 121.411 114.258 120.578C112.325 119.778 110.742 119.028 109.508 118.328C108.308 117.595 107.258 116.611 106.358 115.378C105.458 114.145 105.008 112.595 105.008 110.728C104.975 108.428 105.542 106.428 106.708 104.728C107.875 103.028 109.492 101.728 111.558 100.828C113.625 99.9279 115.992 99.4779 118.658 99.4779C121.058 99.4779 123.192 99.8613 125.058 100.628C126.925 101.361 128.375 102.445 129.408 103.878C130.442 105.278 130.958 106.945 130.958 108.878C130.958 109.378 130.942 109.745 130.908 109.978H121.808C121.842 109.845 121.858 109.645 121.858 109.378C121.858 108.445 121.525 107.695 120.858 107.128C120.225 106.528 119.342 106.228 118.208 106.228C117.008 106.228 116.025 106.528 115.258 107.128C114.525 107.695 114.158 108.478 114.158 109.478C114.158 110.478 114.625 111.328 115.558 112.028C116.492 112.695 117.942 113.478 119.908 114.378C121.875 115.278 123.475 116.111 124.708 116.878C125.975 117.645 127.058 118.678 127.958 119.978C128.858 121.245 129.308 122.811 129.308 124.678C129.308 126.745 128.758 128.595 127.658 130.228C126.558 131.861 124.975 133.145 122.908 134.078C120.842 134.978 118.425 135.428 115.658 135.428ZM177.834 111.278C177.501 113.311 176.717 115.178 175.484 116.878C174.251 118.545 172.567 119.895 170.434 120.928C168.334 121.961 165.851 122.478 162.984 122.478H157.684L155.434 135.078H146.884L153.084 99.9779H166.934C170.601 99.9779 173.367 100.795 175.234 102.428C177.101 104.028 178.034 106.211 178.034 108.978C178.034 109.811 177.967 110.578 177.834 111.278ZM163.484 115.778C166.684 115.778 168.567 114.278 169.134 111.278C169.201 110.745 169.234 110.361 169.234 110.128C169.234 109.061 168.884 108.245 168.184 107.678C167.517 107.078 166.484 106.778 165.084 106.778H160.434L158.884 115.778H163.484ZM192.885 106.728L191.635 114.028H203.085L201.935 120.478H190.485L189.085 128.328H202.035L200.835 135.078H179.335L185.535 99.9779H207.035L205.835 106.728H192.885ZM203.185 92.9279L190.185 97.9779L191.235 92.0779L204.335 86.2779L203.185 92.9279ZM221.586 135.428C217.786 135.428 214.686 134.611 212.286 132.978C209.919 131.311 208.736 128.961 208.736 125.928C208.736 125.628 208.769 125.178 208.836 124.578H217.736C217.636 125.845 217.936 126.845 218.636 127.578C219.336 128.311 220.403 128.678 221.836 128.678C223.136 128.678 224.153 128.395 224.886 127.828C225.653 127.261 226.036 126.461 226.036 125.428C226.036 124.361 225.553 123.495 224.586 122.828C223.653 122.161 222.186 121.411 220.186 120.578C218.253 119.778 216.669 119.028 215.436 118.328C214.236 117.595 213.186 116.611 212.286 115.378C211.386 114.145 210.936 112.595 210.936 110.728C210.903 108.428 211.469 106.428 212.636 104.728C213.803 103.028 215.419 101.728 217.486 100.828C219.553 99.9279 221.919 99.4779 224.586 99.4779C226.986 99.4779 229.119 99.8613 230.986 100.628C232.853 101.361 234.303 102.445 235.336 103.878C236.369 105.278 236.886 106.945 236.886 108.878C236.886 109.378 236.869 109.745 236.836 109.978H227.736C227.769 109.845 227.786 109.645 227.786 109.378C227.786 108.445 227.453 107.695 226.786 107.128C226.153 106.528 225.269 106.228 224.136 106.228C222.936 106.228 221.953 106.528 221.186 107.128C220.453 107.695 220.086 108.478 220.086 109.478C220.086 110.478 220.553 111.328 221.486 112.028C222.419 112.695 223.869 113.478 225.836 114.378C227.803 115.278 229.403 116.111 230.636 116.878C231.903 117.645 232.986 118.678 233.886 119.978C234.786 121.245 235.236 122.811 235.236 124.678C235.236 126.745 234.686 128.595 233.586 130.228C232.486 131.861 230.903 133.145 228.836 134.078C226.769 134.978 224.353 135.428 221.586 135.428ZM283.762 111.278C283.428 113.311 282.645 115.178 281.412 116.878C280.178 118.545 278.495 119.895 276.362 120.928C274.262 121.961 271.778 122.478 268.912 122.478H263.612L261.362 135.078H252.812L259.012 99.9779H272.862C276.528 99.9779 279.295 100.795 281.162 102.428C283.028 104.028 283.962 106.211 283.962 108.978C283.962 109.811 283.895 110.578 283.762 111.278ZM269.412 115.778C272.612 115.778 274.495 114.278 275.062 111.278C275.128 110.745 275.162 110.361 275.162 110.128C275.162 109.061 274.812 108.245 274.112 107.678C273.445 107.078 272.412 106.778 271.012 106.778H266.362L264.812 115.778H269.412ZM305.813 99.9779C309.446 99.9779 312.213 100.811 314.113 102.478C316.013 104.111 316.963 106.245 316.963 108.878C316.963 109.645 316.896 110.361 316.763 111.028C316.363 113.361 315.346 115.445 313.713 117.278C312.08 119.111 309.896 120.411 307.163 121.178L312.813 135.078H303.163L298.213 121.828H296.163L293.813 135.078H285.263L291.463 99.9779H305.813ZM308.013 111.378C308.08 110.845 308.113 110.495 308.113 110.328C308.113 109.261 307.763 108.445 307.063 107.878C306.396 107.278 305.396 106.978 304.063 106.978H298.763L297.213 115.778H302.513C304.08 115.778 305.313 115.395 306.213 114.628C307.146 113.861 307.746 112.778 308.013 111.378ZM332.68 106.728L331.43 114.028H342.88L341.73 120.478H330.28L328.88 128.328H341.83L340.63 135.078H319.13L325.33 99.9779H346.83L345.63 106.728H332.68ZM349.131 117.478C349.731 114.011 351.014 110.928 352.981 108.228C354.981 105.495 357.448 103.378 360.381 101.878C363.314 100.345 366.481 99.5779 369.881 99.5779C374.048 99.5779 377.414 100.678 379.981 102.878C382.581 105.078 384.048 108.078 384.381 111.878H374.981C374.548 110.445 373.748 109.361 372.581 108.628C371.448 107.861 370.048 107.478 368.381 107.478C365.748 107.478 363.464 108.395 361.531 110.228C359.598 112.028 358.364 114.445 357.831 117.478C357.664 118.411 357.581 119.228 357.581 119.928C357.581 122.261 358.231 124.111 359.531 125.478C360.831 126.845 362.614 127.528 364.881 127.528C366.514 127.528 368.031 127.145 369.431 126.378C370.864 125.611 372.064 124.511 373.031 123.078H382.431C380.764 126.878 378.248 129.878 374.881 132.078C371.514 134.245 367.748 135.328 363.581 135.328C360.581 135.328 357.964 134.745 355.731 133.578C353.498 132.411 351.781 130.761 350.581 128.628C349.381 126.495 348.781 124.011 348.781 121.178C348.781 119.911 348.898 118.678 349.131 117.478ZM401.517 99.9779L395.317 135.078H386.767L392.967 99.9779H401.517ZM416.713 135.428C412.913 135.428 409.813 134.611 407.413 132.978C405.046 131.311 403.863 128.961 403.863 125.928C403.863 125.628 403.896 125.178 403.963 124.578H412.863C412.763 125.845 413.063 126.845 413.763 127.578C414.463 128.311 415.53 128.678 416.963 128.678C418.263 128.678 419.28 128.395 420.013 127.828C420.78 127.261 421.163 126.461 421.163 125.428C421.163 124.361 420.68 123.495 419.713 122.828C418.78 122.161 417.313 121.411 415.313 120.578C413.38 119.778 411.796 119.028 410.563 118.328C409.363 117.595 408.313 116.611 407.413 115.378C406.513 114.145 406.063 112.595 406.063 110.728C406.03 108.428 406.596 106.428 407.763 104.728C408.93 103.028 410.546 101.728 412.613 100.828C414.68 99.9279 417.046 99.4779 419.713 99.4779C422.113 99.4779 424.246 99.8613 426.113 100.628C427.98 101.361 429.43 102.445 430.463 103.878C431.496 105.278 432.013 106.945 432.013 108.878C432.013 109.378 431.996 109.745 431.963 109.978H422.863C422.896 109.845 422.913 109.645 422.913 109.378C422.913 108.445 422.58 107.695 421.913 107.128C421.28 106.528 420.396 106.228 419.263 106.228C418.063 106.228 417.08 106.528 416.313 107.128C415.58 107.695 415.213 108.478 415.213 109.478C415.213 110.478 415.68 111.328 416.613 112.028C417.546 112.695 418.996 113.478 420.963 114.378C422.93 115.278 424.53 116.111 425.763 116.878C427.03 117.645 428.113 118.678 429.013 119.978C429.913 121.245 430.363 122.811 430.363 124.678C430.363 126.745 429.813 128.595 428.713 130.228C427.613 131.861 426.03 133.145 423.963 134.078C421.896 134.978 419.48 135.428 416.713 135.428ZM458.066 128.878H444.966L441.766 135.078H432.816L451.716 99.9779H461.616L468.116 135.078H459.066L458.066 128.878ZM457.066 122.378L455.016 109.378L448.316 122.378H457.066ZM519.182 99.9779L512.982 135.078H504.432L508.182 114.028L496.582 135.078H489.682L485.482 113.928L481.782 135.078H473.232L479.432 99.9779H489.532L495.132 124.278L509.132 99.9779H519.182ZM531.53 126.978L523.43 141.478H517.83L522.83 126.978H531.53ZM6.25 196.478C6.85 193.011 8.13333 189.928 10.1 187.228C12.1 184.495 14.5667 182.378 17.5 180.878C20.4333 179.345 23.6 178.578 27 178.578C31.1667 178.578 34.5333 179.678 37.1 181.878C39.7 184.078 41.1667 187.078 41.5 190.878H32.1C31.6667 189.445 30.8667 188.361 29.7 187.628C28.5667 186.861 27.1667 186.478 25.5 186.478C22.8667 186.478 20.5833 187.395 18.65 189.228C16.7167 191.028 15.4833 193.445 14.95 196.478C14.7833 197.411 14.7 198.228 14.7 198.928C14.7 201.261 15.35 203.111 16.65 204.478C17.95 205.845 19.7333 206.528 22 206.528C23.6333 206.528 25.15 206.145 26.55 205.378C27.9833 204.611 29.1833 203.511 30.15 202.078H39.55C37.8833 205.878 35.3667 208.878 32 211.078C28.6333 213.245 24.8667 214.328 20.7 214.328C17.7 214.328 15.0833 213.745 12.85 212.578C10.6167 211.411 8.9 209.761 7.7 207.628C6.5 205.495 5.9 203.011 5.9 200.178C5.9 198.911 6.01667 197.678 6.25 196.478ZM60.5859 214.428C57.6193 214.428 55.0026 213.811 52.7359 212.578C50.5026 211.345 48.7693 209.611 47.5359 207.378C46.3026 205.145 45.6859 202.578 45.6859 199.678C45.6859 195.578 46.5693 191.928 48.3359 188.728C50.1026 185.495 52.5526 182.978 55.6859 181.178C58.8526 179.378 62.4359 178.478 66.4359 178.478C69.4359 178.478 72.0693 179.095 74.3359 180.328C76.6026 181.528 78.3526 183.245 79.5859 185.478C80.8193 187.678 81.4359 190.211 81.4359 193.078C81.4359 197.178 80.5526 200.861 78.7859 204.128C77.0193 207.361 74.5526 209.895 71.3859 211.728C68.2193 213.528 64.6193 214.428 60.5859 214.428ZM61.8859 206.528C64.0859 206.528 66.0193 205.961 67.6859 204.828C69.3526 203.695 70.6359 202.178 71.5359 200.278C72.4693 198.345 72.9359 196.261 72.9359 194.028C72.9359 191.628 72.2693 189.745 70.9359 188.378C69.6026 187.011 67.7359 186.328 65.3359 186.328C63.1359 186.328 61.1859 186.895 59.4859 188.028C57.8193 189.161 56.5193 190.678 55.5859 192.578C54.6859 194.445 54.2359 196.511 54.2359 198.778C54.2359 201.178 54.9026 203.078 56.2359 204.478C57.5693 205.845 59.4526 206.528 61.8859 206.528ZM130.393 178.978L124.193 214.078H115.643L119.393 193.028L107.793 214.078H100.893L96.6926 192.928L92.9926 214.078H84.4426L90.6426 178.978H100.743L106.343 203.278L120.343 178.978H130.393ZM167.363 207.878H154.263L151.063 214.078H142.113L161.013 178.978H170.913L177.413 214.078H168.363L167.363 207.878ZM166.363 201.378L164.313 188.378L157.613 201.378H166.363ZM232.901 193.078C232.901 196.978 232.101 200.511 230.501 203.678C228.901 206.811 226.667 209.295 223.801 211.128L229.651 220.078H219.301L215.951 214.128C214.717 214.328 213.417 214.428 212.051 214.428C209.084 214.428 206.467 213.811 204.201 212.578C201.967 211.345 200.234 209.611 199.001 207.378C197.767 205.145 197.151 202.578 197.151 199.678C197.151 195.578 198.034 191.928 199.801 188.728C201.567 185.495 204.017 182.978 207.151 181.178C210.317 179.378 213.901 178.478 217.901 178.478C220.901 178.478 223.534 179.095 225.801 180.328C228.067 181.528 229.817 183.245 231.051 185.478C232.284 187.678 232.901 190.211 232.901 193.078ZM205.701 198.778C205.701 201.178 206.367 203.078 207.701 204.478C209.034 205.845 210.917 206.528 213.351 206.528C215.551 206.528 217.484 205.961 219.151 204.828C220.817 203.695 222.101 202.178 223.001 200.278C223.934 198.345 224.401 196.261 224.401 194.028C224.401 191.628 223.734 189.745 222.401 188.378C221.067 187.011 219.201 186.328 216.801 186.328C214.601 186.328 212.651 186.895 210.951 188.028C209.284 189.161 207.984 190.678 207.051 192.578C206.151 194.445 205.701 196.511 205.701 198.778ZM250.605 178.978L246.905 199.928C246.772 200.795 246.705 201.395 246.705 201.728C246.705 203.261 247.138 204.445 248.005 205.278C248.872 206.078 250.155 206.478 251.855 206.478C253.855 206.478 255.488 205.911 256.755 204.778C258.022 203.645 258.838 202.028 259.205 199.928L262.905 178.978H271.455L267.755 199.928C267.188 203.095 266.055 205.778 264.355 207.978C262.688 210.145 260.638 211.761 258.205 212.828C255.805 213.895 253.188 214.428 250.355 214.428C246.688 214.428 243.722 213.478 241.455 211.578C239.222 209.678 238.105 206.928 238.105 203.328C238.105 202.261 238.205 201.128 238.405 199.928L242.055 178.978H250.605ZM295.459 207.878H282.359L279.159 214.078H270.209L289.109 178.978H299.009L305.509 214.078H296.459L295.459 207.878ZM294.459 201.378L292.409 188.378L285.709 201.378H294.459ZM320.324 207.578H331.524L330.374 214.078H310.624L316.824 178.978H325.374L320.324 207.578ZM350.452 178.978L344.252 214.078H335.702L341.902 178.978H350.452ZM371.048 178.978C374.282 178.978 377.065 179.561 379.398 180.728C381.765 181.861 383.565 183.478 384.798 185.578C386.065 187.645 386.698 190.078 386.698 192.878C386.698 193.845 386.582 195.061 386.348 196.528C385.748 199.961 384.448 203.011 382.448 205.678C380.482 208.345 377.965 210.411 374.898 211.878C371.865 213.345 368.515 214.078 364.848 214.078H351.698L357.898 178.978H371.048ZM365.598 206.778C368.832 206.778 371.515 205.878 373.648 204.078C375.782 202.278 377.115 199.761 377.648 196.528C377.815 195.528 377.898 194.695 377.898 194.028C377.898 191.561 377.148 189.661 375.648 188.328C374.148 186.961 372.015 186.278 369.248 186.278H365.148L361.548 206.778H365.598ZM412.227 207.878H399.127L395.927 214.078H386.977L405.877 178.978H415.777L422.277 214.078H413.227L412.227 207.878ZM411.227 201.378L409.177 188.378L402.477 201.378H411.227ZM446.742 178.978C449.975 178.978 452.758 179.561 455.092 180.728C457.458 181.861 459.258 183.478 460.492 185.578C461.758 187.645 462.392 190.078 462.392 192.878C462.392 193.845 462.275 195.061 462.042 196.528C461.442 199.961 460.142 203.011 458.142 205.678C456.175 208.345 453.658 210.411 450.592 211.878C447.558 213.345 444.208 214.078 440.542 214.078H427.392L433.592 178.978H446.742ZM441.292 206.778C444.525 206.778 447.208 205.878 449.342 204.078C451.475 202.278 452.808 199.761 453.342 196.528C453.508 195.528 453.592 194.695 453.592 194.028C453.592 191.561 452.842 189.661 451.342 188.328C449.842 186.961 447.708 186.278 444.942 186.278H440.842L437.242 206.778H441.292ZM478.52 185.728L477.27 193.028H488.72L487.57 199.478H476.12L474.72 207.328H487.67L486.47 214.078H464.97L471.17 178.978H492.67L491.47 185.728H478.52ZM42.1 272.078C42.1 275.978 41.3 279.511 39.7 282.678C38.1 285.811 35.8667 288.295 33 290.128L38.85 299.078H28.5L25.15 293.128C23.9167 293.328 22.6167 293.428 21.25 293.428C18.2833 293.428 15.6667 292.811 13.4 291.578C11.1667 290.345 9.43333 288.611 8.2 286.378C6.96667 284.145 6.35 281.578 6.35 278.678C6.35 274.578 7.23333 270.928 9 267.728C10.7667 264.495 13.2167 261.978 16.35 260.178C19.5167 258.378 23.1 257.478 27.1 257.478C30.1 257.478 32.7333 258.095 35 259.328C37.2667 260.528 39.0167 262.245 40.25 264.478C41.4833 266.678 42.1 269.211 42.1 272.078ZM14.9 277.778C14.9 280.178 15.5667 282.078 16.9 283.478C18.2333 284.845 20.1167 285.528 22.55 285.528C24.75 285.528 26.6833 284.961 28.35 283.828C30.0167 282.695 31.3 281.178 32.2 279.278C33.1333 277.345 33.6 275.261 33.6 273.028C33.6 270.628 32.9333 268.745 31.6 267.378C30.2667 266.011 28.4 265.328 26 265.328C23.8 265.328 21.85 265.895 20.15 267.028C18.4833 268.161 17.1833 269.678 16.25 271.578C15.35 273.445 14.9 275.511 14.9 277.778ZM59.8043 257.978L56.1043 278.928C55.971 279.795 55.9043 280.395 55.9043 280.728C55.9043 282.261 56.3376 283.445 57.2043 284.278C58.071 285.078 59.3543 285.478 61.0543 285.478C63.0543 285.478 64.6876 284.911 65.9543 283.778C67.221 282.645 68.0376 281.028 68.4043 278.928L72.1043 257.978H80.6543L76.9543 278.928C76.3876 282.095 75.2543 284.778 73.5543 286.978C71.8876 289.145 69.8376 290.761 67.4043 291.828C65.0043 292.895 62.3876 293.428 59.5543 293.428C55.8876 293.428 52.921 292.478 50.6543 290.578C48.421 288.678 47.3043 285.928 47.3043 282.328C47.3043 281.261 47.4043 280.128 47.6043 278.928L51.2543 257.978H59.8043ZM95.2582 264.728L94.0082 272.028H105.458L104.308 278.478H92.8582L91.4582 286.328H104.408L103.208 293.078H81.7082L87.9082 257.978H109.408L108.208 264.728H95.2582ZM135.481 257.978L139.531 284.478L152.881 257.978H161.981L143.331 293.078H132.631L126.381 257.978H135.481ZM177.305 293.428C174.338 293.428 171.721 292.811 169.455 291.578C167.221 290.345 165.488 288.611 164.255 286.378C163.021 284.145 162.405 281.578 162.405 278.678C162.405 274.578 163.288 270.928 165.055 267.728C166.821 264.495 169.271 261.978 172.405 260.178C175.571 258.378 179.155 257.478 183.155 257.478C186.155 257.478 188.788 258.095 191.055 259.328C193.321 260.528 195.071 262.245 196.305 264.478C197.538 266.678 198.155 269.211 198.155 272.078C198.155 276.178 197.271 279.861 195.505 283.128C193.738 286.361 191.271 288.895 188.105 290.728C184.938 292.528 181.338 293.428 177.305 293.428ZM178.605 285.528C180.805 285.528 182.738 284.961 184.405 283.828C186.071 282.695 187.355 281.178 188.255 279.278C189.188 277.345 189.655 275.261 189.655 273.028C189.655 270.628 188.988 268.745 187.655 267.378C186.321 266.011 184.455 265.328 182.055 265.328C179.855 265.328 177.905 265.895 176.205 267.028C174.538 268.161 173.238 269.678 172.305 271.578C171.405 273.445 170.955 275.511 170.955 277.778C170.955 280.178 171.621 282.078 172.955 283.478C174.288 284.845 176.171 285.528 178.605 285.528ZM202.861 275.478C203.461 272.011 204.745 268.928 206.711 266.228C208.711 263.495 211.178 261.378 214.111 259.878C217.045 258.345 220.211 257.578 223.611 257.578C227.778 257.578 231.145 258.678 233.711 260.878C236.311 263.078 237.778 266.078 238.111 269.878H228.711C228.278 268.445 227.478 267.361 226.311 266.628C225.178 265.861 223.778 265.478 222.111 265.478C219.478 265.478 217.195 266.395 215.261 268.228C213.328 270.028 212.095 272.445 211.561 275.478C211.395 276.411 211.311 277.228 211.311 277.928C211.311 280.261 211.961 282.111 213.261 283.478C214.561 284.845 216.345 285.528 218.611 285.528C220.245 285.528 221.761 285.145 223.161 284.378C224.595 283.611 225.795 282.511 226.761 281.078H236.161C234.495 284.878 231.978 287.878 228.611 290.078C225.245 292.245 221.478 293.328 217.311 293.328C214.311 293.328 211.695 292.745 209.461 291.578C207.228 290.411 205.511 288.761 204.311 286.628C203.111 284.495 202.511 282.011 202.511 279.178C202.511 277.911 202.628 276.678 202.861 275.478ZM254.047 264.728L252.797 272.028H264.247L263.097 278.478H251.647L250.247 286.328H263.197L261.997 293.078H240.497L246.697 257.978H268.197L266.997 264.728H254.047ZM258.347 251.728L249.797 256.078L250.847 250.178L259.347 245.978L266.347 250.178L265.297 256.078L258.347 251.728ZM327.57 257.978L321.37 293.078H312.82L316.57 272.028L304.97 293.078H298.07L293.87 271.928L290.17 293.078H281.62L287.82 257.978H297.92L303.52 282.278L317.52 257.978H327.57ZM342.319 264.728L341.069 272.028H352.519L351.369 278.478H339.919L338.519 286.328H351.469L350.269 293.078H328.769L334.969 257.978H356.469L355.269 264.728H342.319ZM377.62 257.978C381.253 257.978 384.02 258.811 385.92 260.478C387.82 262.111 388.77 264.245 388.77 266.878C388.77 267.645 388.703 268.361 388.57 269.028C388.17 271.361 387.153 273.445 385.52 275.278C383.886 277.111 381.703 278.411 378.97 279.178L384.62 293.078H374.97L370.02 279.828H367.97L365.62 293.078H357.07L363.27 257.978H377.62ZM379.82 269.378C379.886 268.845 379.92 268.495 379.92 268.328C379.92 267.261 379.57 266.445 378.87 265.878C378.203 265.278 377.203 264.978 375.87 264.978H370.57L369.02 273.778H374.32C375.886 273.778 377.12 273.395 378.02 272.628C378.953 271.861 379.553 270.778 379.82 269.378ZM404.487 264.728L403.237 272.028H414.687L413.537 278.478H402.087L400.687 286.328H413.637L412.437 293.078H390.937L397.137 257.978H418.637L417.437 264.728H404.487ZM420.938 275.478C421.538 272.011 422.821 268.928 424.788 266.228C426.788 263.495 429.254 261.378 432.188 259.878C435.121 258.345 438.288 257.578 441.688 257.578C445.854 257.578 449.221 258.678 451.788 260.878C454.388 263.078 455.854 266.078 456.188 269.878H446.788C446.354 268.445 445.554 267.361 444.387 266.628C443.254 265.861 441.854 265.478 440.188 265.478C437.554 265.478 435.271 266.395 433.338 268.228C431.404 270.028 430.171 272.445 429.638 275.478C429.471 276.411 429.388 277.228 429.388 277.928C429.388 280.261 430.038 282.111 431.338 283.478C432.638 284.845 434.421 285.528 436.688 285.528C438.321 285.528 439.838 285.145 441.238 284.378C442.671 283.611 443.871 282.511 444.838 281.078H454.238C452.571 284.878 450.054 287.878 446.688 290.078C443.321 292.245 439.554 293.328 435.388 293.328C432.388 293.328 429.771 292.745 427.538 291.578C425.304 290.411 423.588 288.761 422.388 286.628C421.188 284.495 420.588 282.011 420.588 279.178C420.588 277.911 420.704 276.678 420.938 275.478ZM472.123 264.728L470.873 272.028H482.323L481.173 278.478H469.723L468.323 286.328H481.273L480.073 293.078H458.573L464.773 257.978H486.273L485.073 264.728H472.123ZM490.824 293.478C489.491 293.478 488.424 293.128 487.624 292.428C486.858 291.695 486.474 290.778 486.474 289.678C486.474 288.145 487.041 286.845 488.174 285.778C489.341 284.711 490.774 284.178 492.474 284.178C493.774 284.178 494.808 284.545 495.574 285.278C496.341 285.978 496.724 286.895 496.724 288.028C496.724 289.528 496.141 290.811 494.974 291.878C493.841 292.945 492.458 293.478 490.824 293.478Z" fill="#FF00FF"/>
<path d="M19.3101 55.35C16.3435 55.35 13.7268 54.7333 11.4601 53.5C9.22679 52.2667 7.49345 50.5333 6.26012 48.3C5.02679 46.0667 4.41012 43.5 4.41012 40.6C4.41012 36.5 5.29345 32.85 7.06012 29.65C8.82679 26.4167 11.2768 23.9 14.4101 22.1C17.5768 20.3 21.1601 19.4 25.1601 19.4C28.1601 19.4 30.7935 20.0167 33.0601 21.25C35.3268 22.45 37.0768 24.1667 38.3101 26.4C39.5435 28.6 40.1601 31.1333 40.1601 34C40.1601 38.1 39.2768 41.7833 37.5101 45.05C35.7435 48.2833 33.2768 50.8167 30.1101 52.65C26.9435 54.45 23.3435 55.35 19.3101 55.35ZM20.6101 47.45C22.8101 47.45 24.7435 46.8833 26.4101 45.75C28.0768 44.6167 29.3601 43.1 30.2601 41.2C31.1935 39.2667 31.6601 37.1833 31.6601 34.95C31.6601 32.55 30.9935 30.6667 29.6601 29.3C28.3268 27.9333 26.4601 27.25 24.0601 27.25C21.8601 27.25 19.9101 27.8167 18.2101 28.95C16.5435 30.0833 15.2435 31.6 14.3101 33.5C13.4101 35.3667 12.9601 37.4333 12.9601 39.7C12.9601 42.1 13.6268 44 14.9601 45.4C16.2935 46.7667 18.1768 47.45 20.6101 47.45ZM57.689 37.4C58.289 33.9333 59.5724 30.85 61.539 28.15C63.539 25.4167 66.0057 23.3 68.939 21.8C71.8724 20.2667 75.039 19.5 78.439 19.5C82.6057 19.5 85.9724 20.6 88.539 22.8C91.139 25 92.6057 28 92.939 31.8H83.539C83.1057 30.3667 82.3057 29.2833 81.139 28.55C80.0057 27.7833 78.6057 27.4 76.939 27.4C74.3057 27.4 72.0224 28.3167 70.089 30.15C68.1557 31.95 66.9224 34.3667 66.389 37.4C66.2224 38.3333 66.139 39.15 66.139 39.85C66.139 42.1833 66.789 44.0333 68.089 45.4C69.389 46.7667 71.1724 47.45 73.439 47.45C75.0724 47.45 76.589 47.0667 77.989 46.3C79.4224 45.5333 80.6224 44.4333 81.589 43H90.989C89.3224 46.8 86.8057 49.8 83.439 52C80.0724 54.1667 76.3057 55.25 72.139 55.25C69.139 55.25 66.5224 54.6667 64.289 53.5C62.0557 52.3333 60.339 50.6833 59.139 48.55C57.939 46.4167 57.339 43.9333 57.339 41.1C57.339 39.8333 57.4557 38.6 57.689 37.4ZM112.025 55.35C109.058 55.35 106.442 54.7333 104.175 53.5C101.942 52.2667 100.208 50.5333 98.975 48.3C97.7416 46.0667 97.125 43.5 97.125 40.6C97.125 36.5 98.0083 32.85 99.775 29.65C101.542 26.4167 103.992 23.9 107.125 22.1C110.292 20.3 113.875 19.4 117.875 19.4C120.875 19.4 123.508 20.0167 125.775 21.25C128.042 22.45 129.792 24.1667 131.025 26.4C132.258 28.6 132.875 31.1333 132.875 34C132.875 38.1 131.992 41.7833 130.225 45.05C128.458 48.2833 125.992 50.8167 122.825 52.65C119.658 54.45 116.058 55.35 112.025 55.35ZM113.325 47.45C115.525 47.45 117.458 46.8833 119.125 45.75C120.792 44.6167 122.075 43.1 122.975 41.2C123.908 39.2667 124.375 37.1833 124.375 34.95C124.375 32.55 123.708 30.6667 122.375 29.3C121.042 27.9333 119.175 27.25 116.775 27.25C114.575 27.25 112.625 27.8167 110.925 28.95C109.258 30.0833 107.958 31.6 107.025 33.5C106.125 35.3667 105.675 37.4333 105.675 39.7C105.675 42.1 106.342 44 107.675 45.4C109.008 46.7667 110.892 47.45 113.325 47.45ZM167.282 55H158.732L148.282 33.35L144.432 55H135.882L142.082 19.9H150.632L161.082 41.65L164.932 19.9H173.482L167.282 55ZM203.779 19.9L202.579 26.65H188.279L186.979 34.2H197.679L196.479 40.7H185.779L183.279 55H174.729L180.929 19.9H203.779ZM220.023 55.35C217.056 55.35 214.44 54.7333 212.173 53.5C209.94 52.2667 208.206 50.5333 206.973 48.3C205.74 46.0667 205.123 43.5 205.123 40.6C205.123 36.5 206.006 32.85 207.773 29.65C209.54 26.4167 211.99 23.9 215.123 22.1C218.29 20.3 221.873 19.4 225.873 19.4C228.873 19.4 231.506 20.0167 233.773 21.25C236.04 22.45 237.79 24.1667 239.023 26.4C240.256 28.6 240.873 31.1333 240.873 34C240.873 38.1 239.99 41.7833 238.223 45.05C236.456 48.2833 233.99 50.8167 230.823 52.65C227.656 54.45 224.056 55.35 220.023 55.35ZM221.323 47.45C223.523 47.45 225.456 46.8833 227.123 45.75C228.79 44.6167 230.073 43.1 230.973 41.2C231.906 39.2667 232.373 37.1833 232.373 34.95C232.373 32.55 231.706 30.6667 230.373 29.3C229.04 27.9333 227.173 27.25 224.773 27.25C222.573 27.25 220.623 27.8167 218.923 28.95C217.256 30.0833 215.956 31.6 215.023 33.5C214.123 35.3667 213.673 37.4333 213.673 39.7C213.673 42.1 214.34 44 215.673 45.4C217.006 46.7667 218.89 47.45 221.323 47.45ZM264.43 19.9C268.063 19.9 270.83 20.7333 272.73 22.4C274.63 24.0333 275.58 26.1667 275.58 28.8C275.58 29.5667 275.513 30.2833 275.38 30.95C274.98 33.2833 273.963 35.3667 272.33 37.2C270.696 39.0333 268.513 40.3333 265.78 41.1L271.43 55H261.78L256.83 41.75H254.78L252.43 55H243.88L250.08 19.9H264.43ZM266.63 31.3C266.696 30.7667 266.73 30.4167 266.73 30.25C266.73 29.1833 266.38 28.3667 265.68 27.8C265.013 27.2 264.013 26.9 262.68 26.9H257.38L255.83 35.7H261.13C262.696 35.7 263.93 35.3167 264.83 34.55C265.763 33.7833 266.363 32.7 266.63 31.3ZM309.197 19.9L308.047 26.65H298.697L293.697 55H285.147L290.147 26.65H280.847L282.047 19.9H309.197ZM325.238 55.35C322.271 55.35 319.655 54.7333 317.388 53.5C315.155 52.2667 313.421 50.5333 312.188 48.3C310.955 46.0667 310.338 43.5 310.338 40.6C310.338 36.5 311.221 32.85 312.988 29.65C314.755 26.4167 317.205 23.9 320.338 22.1C323.505 20.3 327.088 19.4 331.088 19.4C334.088 19.4 336.721 20.0167 338.988 21.25C341.255 22.45 343.005 24.1667 344.238 26.4C345.471 28.6 346.088 31.1333 346.088 34C346.088 38.1 345.205 41.7833 343.438 45.05C341.671 48.2833 339.205 50.8167 336.038 52.65C332.871 54.45 329.271 55.35 325.238 55.35ZM326.538 47.45C328.738 47.45 330.671 46.8833 332.338 45.75C334.005 44.6167 335.288 43.1 336.188 41.2C337.121 39.2667 337.588 37.1833 337.588 34.95C337.588 32.55 336.921 30.6667 335.588 29.3C334.255 27.9333 332.388 27.25 329.988 27.25C327.788 27.25 325.838 27.8167 324.138 28.95C322.471 30.0833 321.171 31.6 320.238 33.5C319.338 35.3667 318.888 37.4333 318.888 39.7C318.888 42.1 319.555 44 320.888 45.4C322.221 46.7667 324.105 47.45 326.538 47.45ZM399.467 34C399.467 37.9 398.667 41.4333 397.067 44.6C395.467 47.7333 393.233 50.2167 390.367 52.05L396.217 61H385.867L382.517 55.05C381.283 55.25 379.983 55.35 378.617 55.35C375.65 55.35 373.033 54.7333 370.767 53.5C368.533 52.2667 366.8 50.5333 365.567 48.3C364.333 46.0667 363.717 43.5 363.717 40.6C363.717 36.5 364.6 32.85 366.367 29.65C368.133 26.4167 370.583 23.9 373.717 22.1C376.883 20.3 380.467 19.4 384.467 19.4C387.467 19.4 390.1 20.0167 392.367 21.25C394.633 22.45 396.383 24.1667 397.617 26.4C398.85 28.6 399.467 31.1333 399.467 34ZM372.267 39.7C372.267 42.1 372.933 44 374.267 45.4C375.6 46.7667 377.483 47.45 379.917 47.45C382.117 47.45 384.05 46.8833 385.717 45.75C387.383 44.6167 388.667 43.1 389.567 41.2C390.5 39.2667 390.967 37.1833 390.967 34.95C390.967 32.55 390.3 30.6667 388.967 29.3C387.633 27.9333 385.767 27.25 383.367 27.25C381.167 27.25 379.217 27.8167 377.517 28.95C375.85 30.0833 374.55 31.6 373.617 33.5C372.717 35.3667 372.267 37.4333 372.267 39.7ZM417.171 19.9L413.471 40.85C413.338 41.7167 413.271 42.3167 413.271 42.65C413.271 44.1833 413.704 45.3667 414.571 46.2C415.438 47 416.721 47.4 418.421 47.4C420.421 47.4 422.054 46.8333 423.321 45.7C424.588 44.5667 425.404 42.95 425.771 40.85L429.471 19.9H438.021L434.321 40.85C433.754 44.0167 432.621 46.7 430.921 48.9C429.254 51.0667 427.204 52.6833 424.771 53.75C422.371 54.8167 419.754 55.35 416.921 55.35C413.254 55.35 410.288 54.4 408.021 52.5C405.788 50.6 404.671 47.85 404.671 44.25C404.671 43.1833 404.771 42.05 404.971 40.85L408.621 19.9H417.171ZM452.625 26.65L451.375 33.95H462.825L461.675 40.4H450.225L448.825 48.25H461.775L460.575 55H439.075L445.275 19.9H466.775L465.575 26.65H452.625ZM16.5601 134.35C12.7601 134.35 9.66012 133.533 7.26012 131.9C4.89345 130.233 3.71012 127.883 3.71012 124.85C3.71012 124.55 3.74345 124.1 3.81012 123.5H12.7101C12.6101 124.767 12.9101 125.767 13.6101 126.5C14.3101 127.233 15.3768 127.6 16.8101 127.6C18.1101 127.6 19.1268 127.317 19.8601 126.75C20.6268 126.183 21.0101 125.383 21.0101 124.35C21.0101 123.283 20.5268 122.417 19.5601 121.75C18.6268 121.083 17.1601 120.333 15.1601 119.5C13.2268 118.7 11.6435 117.95 10.4101 117.25C9.21012 116.517 8.16012 115.533 7.26012 114.3C6.36012 113.067 5.91012 111.517 5.91012 109.65C5.87679 107.35 6.44345 105.35 7.61012 103.65C8.77679 101.95 10.3935 100.65 12.4601 99.75C14.5268 98.85 16.8935 98.4 19.5601 98.4C21.9601 98.4 24.0935 98.7833 25.9601 99.55C27.8268 100.283 29.2768 101.367 30.3101 102.8C31.3435 104.2 31.8601 105.867 31.8601 107.8C31.8601 108.3 31.8435 108.667 31.8101 108.9H22.7101C22.7435 108.767 22.7601 108.567 22.7601 108.3C22.7601 107.367 22.4268 106.617 21.7601 106.05C21.1268 105.45 20.2435 105.15 19.1101 105.15C17.9101 105.15 16.9268 105.45 16.1601 106.05C15.4268 106.617 15.0601 107.4 15.0601 108.4C15.0601 109.4 15.5268 110.25 16.4601 110.95C17.3935 111.617 18.8435 112.4 20.8101 113.3C22.7768 114.2 24.3768 115.033 25.6101 115.8C26.8768 116.567 27.9601 117.6 28.8601 118.9C29.7601 120.167 30.2101 121.733 30.2101 123.6C30.2101 125.667 29.6601 127.517 28.5601 129.15C27.4601 130.783 25.8768 132.067 23.8101 133C21.7435 133.9 19.3268 134.35 16.5601 134.35ZM48.5136 105.65L47.2636 112.95H58.7136L57.5636 119.4H46.1136L44.7136 127.25H57.6636L56.4636 134H34.9636L41.1636 98.9H62.6636L61.4636 105.65H48.5136ZM77.8644 98.9L74.1644 119.85C74.0311 120.717 73.9644 121.317 73.9644 121.65C73.9644 123.183 74.3978 124.367 75.2644 125.2C76.1311 126 77.4144 126.4 79.1144 126.4C81.1144 126.4 82.7478 125.833 84.0144 124.7C85.2811 123.567 86.0978 121.95 86.4644 119.85L90.1644 98.9H98.7144L95.0144 119.85C94.4478 123.017 93.3144 125.7 91.6144 127.9C89.9477 130.067 87.8977 131.683 85.4644 132.75C83.0644 133.817 80.4478 134.35 77.6144 134.35C73.9478 134.35 70.9811 133.4 68.7144 131.5C66.4811 129.6 65.3644 126.85 65.3644 123.25C65.3644 122.183 65.4644 121.05 65.6644 119.85L69.3144 98.9H77.8644ZM113.718 134.35C109.918 134.35 106.818 133.533 104.418 131.9C102.052 130.233 100.868 127.883 100.868 124.85C100.868 124.55 100.902 124.1 100.968 123.5H109.868C109.768 124.767 110.068 125.767 110.768 126.5C111.468 127.233 112.535 127.6 113.968 127.6C115.268 127.6 116.285 127.317 117.018 126.75C117.785 126.183 118.168 125.383 118.168 124.35C118.168 123.283 117.685 122.417 116.718 121.75C115.785 121.083 114.318 120.333 112.318 119.5C110.385 118.7 108.802 117.95 107.568 117.25C106.368 116.517 105.318 115.533 104.418 114.3C103.518 113.067 103.068 111.517 103.068 109.65C103.035 107.35 103.602 105.35 104.768 103.65C105.935 101.95 107.552 100.65 109.618 99.75C111.685 98.85 114.052 98.4 116.718 98.4C119.118 98.4 121.252 98.7833 123.118 99.55C124.985 100.283 126.435 101.367 127.468 102.8C128.502 104.2 129.018 105.867 129.018 107.8C129.018 108.3 129.002 108.667 128.968 108.9H119.868C119.902 108.767 119.918 108.567 119.918 108.3C119.918 107.367 119.585 106.617 118.918 106.05C118.285 105.45 117.402 105.15 116.268 105.15C115.068 105.15 114.085 105.45 113.318 106.05C112.585 106.617 112.218 107.4 112.218 108.4C112.218 109.4 112.685 110.25 113.618 110.95C114.552 111.617 116.002 112.4 117.968 113.3C119.935 114.2 121.535 115.033 122.768 115.8C124.035 116.567 125.118 117.6 126.018 118.9C126.918 120.167 127.368 121.733 127.368 123.6C127.368 125.667 126.818 127.517 125.718 129.15C124.618 130.783 123.035 132.067 120.968 133C118.902 133.9 116.485 134.35 113.718 134.35ZM175.894 110.2C175.561 112.233 174.777 114.1 173.544 115.8C172.311 117.467 170.627 118.817 168.494 119.85C166.394 120.883 163.911 121.4 161.044 121.4H155.744L153.494 134H144.944L151.144 98.9H164.994C168.661 98.9 171.427 99.7167 173.294 101.35C175.161 102.95 176.094 105.133 176.094 107.9C176.094 108.733 176.027 109.5 175.894 110.2ZM161.544 114.7C164.744 114.7 166.627 113.2 167.194 110.2C167.261 109.667 167.294 109.283 167.294 109.05C167.294 107.983 166.944 107.167 166.244 106.6C165.577 106 164.544 105.7 163.144 105.7H158.494L156.944 114.7H161.544ZM190.945 105.65L189.695 112.95H201.145L199.995 119.4H188.545L187.145 127.25H200.095L198.895 134H177.395L183.595 98.9H205.095L203.895 105.65H190.945ZM201.245 91.85L188.245 96.9L189.295 91L202.395 85.2L201.245 91.85ZM219.646 134.35C215.846 134.35 212.746 133.533 210.346 131.9C207.979 130.233 206.796 127.883 206.796 124.85C206.796 124.55 206.829 124.1 206.896 123.5H215.796C215.696 124.767 215.996 125.767 216.696 126.5C217.396 127.233 218.463 127.6 219.896 127.6C221.196 127.6 222.213 127.317 222.946 126.75C223.713 126.183 224.096 125.383 224.096 124.35C224.096 123.283 223.613 122.417 222.646 121.75C221.713 121.083 220.246 120.333 218.246 119.5C216.313 118.7 214.729 117.95 213.496 117.25C212.296 116.517 211.246 115.533 210.346 114.3C209.446 113.067 208.996 111.517 208.996 109.65C208.963 107.35 209.529 105.35 210.696 103.65C211.863 101.95 213.479 100.65 215.546 99.75C217.613 98.85 219.979 98.4 222.646 98.4C225.046 98.4 227.179 98.7833 229.046 99.55C230.913 100.283 232.363 101.367 233.396 102.8C234.429 104.2 234.946 105.867 234.946 107.8C234.946 108.3 234.929 108.667 234.896 108.9H225.796C225.829 108.767 225.846 108.567 225.846 108.3C225.846 107.367 225.513 106.617 224.846 106.05C224.213 105.45 223.329 105.15 222.196 105.15C220.996 105.15 220.013 105.45 219.246 106.05C218.513 106.617 218.146 107.4 218.146 108.4C218.146 109.4 218.613 110.25 219.546 110.95C220.479 111.617 221.929 112.4 223.896 113.3C225.863 114.2 227.463 115.033 228.696 115.8C229.963 116.567 231.046 117.6 231.946 118.9C232.846 120.167 233.296 121.733 233.296 123.6C233.296 125.667 232.746 127.517 231.646 129.15C230.546 130.783 228.963 132.067 226.896 133C224.829 133.9 222.413 134.35 219.646 134.35ZM281.822 110.2C281.489 112.233 280.705 114.1 279.472 115.8C278.239 117.467 276.555 118.817 274.422 119.85C272.322 120.883 269.839 121.4 266.972 121.4H261.672L259.422 134H250.872L257.072 98.9H270.922C274.589 98.9 277.355 99.7167 279.222 101.35C281.089 102.95 282.022 105.133 282.022 107.9C282.022 108.733 281.955 109.5 281.822 110.2ZM267.472 114.7C270.672 114.7 272.555 113.2 273.122 110.2C273.189 109.667 273.222 109.283 273.222 109.05C273.222 107.983 272.872 107.167 272.172 106.6C271.505 106 270.472 105.7 269.072 105.7H264.422L262.872 114.7H267.472ZM303.873 98.9C307.506 98.9 310.273 99.7333 312.173 101.4C314.073 103.033 315.023 105.167 315.023 107.8C315.023 108.567 314.956 109.283 314.823 109.95C314.423 112.283 313.406 114.367 311.773 116.2C310.14 118.033 307.956 119.333 305.223 120.1L310.873 134H301.223L296.273 120.75H294.223L291.873 134H283.323L289.523 98.9H303.873ZM306.073 110.3C306.14 109.767 306.173 109.417 306.173 109.25C306.173 108.183 305.823 107.367 305.123 106.8C304.456 106.2 303.456 105.9 302.123 105.9H296.823L295.273 114.7H300.573C302.14 114.7 303.373 114.317 304.273 113.55C305.206 112.783 305.806 111.7 306.073 110.3ZM330.74 105.65L329.49 112.95H340.94L339.79 119.4H328.34L326.94 127.25H339.89L338.69 134H317.19L323.39 98.9H344.89L343.69 105.65H330.74ZM347.191 116.4C347.791 112.933 349.074 109.85 351.041 107.15C353.041 104.417 355.508 102.3 358.441 100.8C361.374 99.2667 364.541 98.5 367.941 98.5C372.108 98.5 375.474 99.6 378.041 101.8C380.641 104 382.108 107 382.441 110.8H373.041C372.608 109.367 371.808 108.283 370.641 107.55C369.508 106.783 368.108 106.4 366.441 106.4C363.808 106.4 361.524 107.317 359.591 109.15C357.658 110.95 356.424 113.367 355.891 116.4C355.724 117.333 355.641 118.15 355.641 118.85C355.641 121.183 356.291 123.033 357.591 124.4C358.891 125.767 360.674 126.45 362.941 126.45C364.574 126.45 366.091 126.067 367.491 125.3C368.924 124.533 370.124 123.433 371.091 122H380.491C378.824 125.8 376.308 128.8 372.941 131C369.574 133.167 365.808 134.25 361.641 134.25C358.641 134.25 356.024 133.667 353.791 132.5C351.558 131.333 349.841 129.683 348.641 127.55C347.441 125.417 346.841 122.933 346.841 120.1C346.841 118.833 346.958 117.6 347.191 116.4ZM399.577 98.9L393.377 134H384.827L391.027 98.9H399.577ZM414.773 134.35C410.973 134.35 407.873 133.533 405.473 131.9C403.106 130.233 401.923 127.883 401.923 124.85C401.923 124.55 401.956 124.1 402.023 123.5H410.923C410.823 124.767 411.123 125.767 411.823 126.5C412.523 127.233 413.59 127.6 415.023 127.6C416.323 127.6 417.34 127.317 418.073 126.75C418.84 126.183 419.223 125.383 419.223 124.35C419.223 123.283 418.74 122.417 417.773 121.75C416.84 121.083 415.373 120.333 413.373 119.5C411.44 118.7 409.856 117.95 408.623 117.25C407.423 116.517 406.373 115.533 405.473 114.3C404.573 113.067 404.123 111.517 404.123 109.65C404.09 107.35 404.656 105.35 405.823 103.65C406.99 101.95 408.606 100.65 410.673 99.75C412.74 98.85 415.106 98.4 417.773 98.4C420.173 98.4 422.306 98.7833 424.173 99.55C426.04 100.283 427.49 101.367 428.523 102.8C429.556 104.2 430.073 105.867 430.073 107.8C430.073 108.3 430.056 108.667 430.023 108.9H420.923C420.956 108.767 420.973 108.567 420.973 108.3C420.973 107.367 420.64 106.617 419.973 106.05C419.34 105.45 418.456 105.15 417.323 105.15C416.123 105.15 415.14 105.45 414.373 106.05C413.64 106.617 413.273 107.4 413.273 108.4C413.273 109.4 413.74 110.25 414.673 110.95C415.606 111.617 417.056 112.4 419.023 113.3C420.99 114.2 422.59 115.033 423.823 115.8C425.09 116.567 426.173 117.6 427.073 118.9C427.973 120.167 428.423 121.733 428.423 123.6C428.423 125.667 427.873 127.517 426.773 129.15C425.673 130.783 424.09 132.067 422.023 133C419.956 133.9 417.54 134.35 414.773 134.35ZM456.127 127.8H443.027L439.827 134H430.877L449.777 98.9H459.677L466.177 134H457.127L456.127 127.8ZM455.127 121.3L453.077 108.3L446.377 121.3H455.127ZM517.242 98.9L511.042 134H502.492L506.242 112.95L494.642 134H487.742L483.542 112.85L479.842 134H471.292L477.492 98.9H487.592L493.192 123.2L507.192 98.9H517.242ZM529.59 125.9L521.49 140.4H515.89L520.89 125.9H529.59ZM4.31012 195.4C4.91012 191.933 6.19345 188.85 8.16012 186.15C10.1601 183.417 12.6268 181.3 15.5601 179.8C18.4935 178.267 21.6601 177.5 25.0601 177.5C29.2268 177.5 32.5935 178.6 35.1601 180.8C37.7601 183 39.2268 186 39.5601 189.8H30.1601C29.7268 188.367 28.9268 187.283 27.7601 186.55C26.6268 185.783 25.2268 185.4 23.5601 185.4C20.9268 185.4 18.6435 186.317 16.7101 188.15C14.7768 189.95 13.5435 192.367 13.0101 195.4C12.8435 196.333 12.7601 197.15 12.7601 197.85C12.7601 200.183 13.4101 202.033 14.7101 203.4C16.0101 204.767 17.7935 205.45 20.0601 205.45C21.6935 205.45 23.2101 205.067 24.6101 204.3C26.0435 203.533 27.2435 202.433 28.2101 201H37.6101C35.9435 204.8 33.4268 207.8 30.0601 210C26.6935 212.167 22.9268 213.25 18.7601 213.25C15.7601 213.25 13.1435 212.667 10.9101 211.5C8.67679 210.333 6.96012 208.683 5.76012 206.55C4.56012 204.417 3.96012 201.933 3.96012 199.1C3.96012 197.833 4.07679 196.6 4.31012 195.4ZM58.6461 213.35C55.6794 213.35 53.0627 212.733 50.7961 211.5C48.5627 210.267 46.8294 208.533 45.5961 206.3C44.3627 204.067 43.7461 201.5 43.7461 198.6C43.7461 194.5 44.6294 190.85 46.3961 187.65C48.1627 184.417 50.6127 181.9 53.7461 180.1C56.9127 178.3 60.4961 177.4 64.4961 177.4C67.4961 177.4 70.1294 178.017 72.3961 179.25C74.6627 180.45 76.4127 182.167 77.6461 184.4C78.8794 186.6 79.4961 189.133 79.4961 192C79.4961 196.1 78.6127 199.783 76.8461 203.05C75.0794 206.283 72.6127 208.817 69.4461 210.65C66.2794 212.45 62.6794 213.35 58.6461 213.35ZM59.9461 205.45C62.1461 205.45 64.0794 204.883 65.7461 203.75C67.4127 202.617 68.6961 201.1 69.5961 199.2C70.5294 197.267 70.9961 195.183 70.9961 192.95C70.9961 190.55 70.3294 188.667 68.9961 187.3C67.6627 185.933 65.7961 185.25 63.3961 185.25C61.1961 185.25 59.2461 185.817 57.5461 186.95C55.8794 188.083 54.5794 189.6 53.6461 191.5C52.7461 193.367 52.2961 195.433 52.2961 197.7C52.2961 200.1 52.9627 202 54.2961 203.4C55.6294 204.767 57.5127 205.45 59.9461 205.45ZM128.453 177.9L122.253 213H113.703L117.453 191.95L105.853 213H98.9527L94.7527 191.85L91.0527 213H82.5027L88.7027 177.9H98.8027L104.403 202.2L118.403 177.9H128.453ZM165.423 206.8H152.323L149.123 213H140.173L159.073 177.9H168.973L175.473 213H166.423L165.423 206.8ZM164.423 200.3L162.373 187.3L155.673 200.3H164.423ZM230.961 192C230.961 195.9 230.161 199.433 228.561 202.6C226.961 205.733 224.728 208.217 221.861 210.05L227.711 219H217.361L214.011 213.05C212.778 213.25 211.478 213.35 210.111 213.35C207.144 213.35 204.528 212.733 202.261 211.5C200.028 210.267 198.294 208.533 197.061 206.3C195.828 204.067 195.211 201.5 195.211 198.6C195.211 194.5 196.094 190.85 197.861 187.65C199.628 184.417 202.078 181.9 205.211 180.1C208.378 178.3 211.961 177.4 215.961 177.4C218.961 177.4 221.594 178.017 223.861 179.25C226.128 180.45 227.878 182.167 229.111 184.4C230.344 186.6 230.961 189.133 230.961 192ZM203.761 197.7C203.761 200.1 204.428 202 205.761 203.4C207.094 204.767 208.978 205.45 211.411 205.45C213.611 205.45 215.544 204.883 217.211 203.75C218.878 202.617 220.161 201.1 221.061 199.2C221.994 197.267 222.461 195.183 222.461 192.95C222.461 190.55 221.794 188.667 220.461 187.3C219.128 185.933 217.261 185.25 214.861 185.25C212.661 185.25 210.711 185.817 209.011 186.95C207.344 188.083 206.044 189.6 205.111 191.5C204.211 193.367 203.761 195.433 203.761 197.7ZM248.665 177.9L244.965 198.85C244.832 199.717 244.765 200.317 244.765 200.65C244.765 202.183 245.199 203.367 246.065 204.2C246.932 205 248.215 205.4 249.915 205.4C251.915 205.4 253.549 204.833 254.815 203.7C256.082 202.567 256.899 200.95 257.265 198.85L260.965 177.9H269.515L265.815 198.85C265.249 202.017 264.115 204.7 262.415 206.9C260.749 209.067 258.699 210.683 256.265 211.75C253.865 212.817 251.249 213.35 248.415 213.35C244.749 213.35 241.782 212.4 239.515 210.5C237.282 208.6 236.165 205.85 236.165 202.25C236.165 201.183 236.265 200.05 236.465 198.85L240.115 177.9H248.665ZM293.519 206.8H280.419L277.219 213H268.269L287.169 177.9H297.069L303.569 213H294.519L293.519 206.8ZM292.519 200.3L290.469 187.3L283.769 200.3H292.519ZM318.384 206.5H329.584L328.434 213H308.684L314.884 177.9H323.434L318.384 206.5ZM348.512 177.9L342.312 213H333.762L339.962 177.9H348.512ZM369.109 177.9C372.342 177.9 375.125 178.483 377.459 179.65C379.825 180.783 381.625 182.4 382.859 184.5C384.125 186.567 384.759 189 384.759 191.8C384.759 192.767 384.642 193.983 384.409 195.45C383.809 198.883 382.509 201.933 380.509 204.6C378.542 207.267 376.025 209.333 372.959 210.8C369.925 212.267 366.575 213 362.909 213H349.759L355.959 177.9H369.109ZM363.659 205.7C366.892 205.7 369.575 204.8 371.709 203C373.842 201.2 375.175 198.683 375.709 195.45C375.875 194.45 375.959 193.617 375.959 192.95C375.959 190.483 375.209 188.583 373.709 187.25C372.209 185.883 370.075 185.2 367.309 185.2H363.209L359.609 205.7H363.659ZM410.287 206.8H397.187L393.987 213H385.037L403.937 177.9H413.837L420.337 213H411.287L410.287 206.8ZM409.287 200.3L407.237 187.3L400.537 200.3H409.287ZM444.802 177.9C448.035 177.9 450.819 178.483 453.152 179.65C455.519 180.783 457.319 182.4 458.552 184.5C459.819 186.567 460.452 189 460.452 191.8C460.452 192.767 460.335 193.983 460.102 195.45C459.502 198.883 458.202 201.933 456.202 204.6C454.235 207.267 451.719 209.333 448.652 210.8C445.619 212.267 442.269 213 438.602 213H425.452L431.652 177.9H444.802ZM439.352 205.7C442.585 205.7 445.269 204.8 447.402 203C449.535 201.2 450.869 198.683 451.402 195.45C451.569 194.45 451.652 193.617 451.652 192.95C451.652 190.483 450.902 188.583 449.402 187.25C447.902 185.883 445.769 185.2 443.002 185.2H438.902L435.302 205.7H439.352ZM476.58 184.65L475.33 191.95H486.78L485.63 198.4H474.18L472.78 206.25H485.73L484.53 213H463.03L469.23 177.9H490.73L489.53 184.65H476.58ZM40.1601 271C40.1601 274.9 39.3601 278.433 37.7601 281.6C36.1601 284.733 33.9268 287.217 31.0601 289.05L36.9101 298H26.5601L23.2101 292.05C21.9768 292.25 20.6768 292.35 19.3101 292.35C16.3435 292.35 13.7268 291.733 11.4601 290.5C9.22679 289.267 7.49345 287.533 6.26012 285.3C5.02679 283.067 4.41012 280.5 4.41012 277.6C4.41012 273.5 5.29345 269.85 7.06012 266.65C8.82679 263.417 11.2768 260.9 14.4101 259.1C17.5768 257.3 21.1601 256.4 25.1601 256.4C28.1601 256.4 30.7935 257.017 33.0601 258.25C35.3268 259.45 37.0768 261.167 38.3101 263.4C39.5435 265.6 40.1601 268.133 40.1601 271ZM12.9601 276.7C12.9601 279.1 13.6268 281 14.9601 282.4C16.2935 283.767 18.1768 284.45 20.6101 284.45C22.8101 284.45 24.7435 283.883 26.4101 282.75C28.0768 281.617 29.3601 280.1 30.2601 278.2C31.1935 276.267 31.6601 274.183 31.6601 271.95C31.6601 269.55 30.9935 267.667 29.6601 266.3C28.3268 264.933 26.4601 264.25 24.0601 264.25C21.8601 264.25 19.9101 264.817 18.2101 265.95C16.5435 267.083 15.2435 268.6 14.3101 270.5C13.4101 272.367 12.9601 274.433 12.9601 276.7ZM57.8644 256.9L54.1644 277.85C54.0311 278.717 53.9644 279.317 53.9644 279.65C53.9644 281.183 54.3978 282.367 55.2644 283.2C56.1311 284 57.4144 284.4 59.1144 284.4C61.1144 284.4 62.7478 283.833 64.0144 282.7C65.2811 281.567 66.0978 279.95 66.4644 277.85L70.1644 256.9H78.7144L75.0144 277.85C74.4478 281.017 73.3144 283.7 71.6144 285.9C69.9477 288.067 67.8977 289.683 65.4644 290.75C63.0644 291.817 60.4478 292.35 57.6144 292.35C53.9478 292.35 50.9811 291.4 48.7144 289.5C46.4811 287.6 45.3644 284.85 45.3644 281.25C45.3644 280.183 45.4644 279.05 45.6644 277.85L49.3144 256.9H57.8644ZM93.3183 263.65L92.0683 270.95H103.518L102.368 277.4H90.9183L89.5183 285.25H102.468L101.268 292H79.7683L85.9683 256.9H107.468L106.268 263.65H93.3183ZM133.541 256.9L137.591 283.4L150.941 256.9H160.041L141.391 292H130.691L124.441 256.9H133.541ZM175.365 292.35C172.398 292.35 169.781 291.733 167.515 290.5C165.281 289.267 163.548 287.533 162.315 285.3C161.081 283.067 160.465 280.5 160.465 277.6C160.465 273.5 161.348 269.85 163.115 266.65C164.881 263.417 167.331 260.9 170.465 259.1C173.631 257.3 177.215 256.4 181.215 256.4C184.215 256.4 186.848 257.017 189.115 258.25C191.381 259.45 193.131 261.167 194.365 263.4C195.598 265.6 196.215 268.133 196.215 271C196.215 275.1 195.331 278.783 193.565 282.05C191.798 285.283 189.331 287.817 186.165 289.65C182.998 291.45 179.398 292.35 175.365 292.35ZM176.665 284.45C178.865 284.45 180.798 283.883 182.465 282.75C184.131 281.617 185.415 280.1 186.315 278.2C187.248 276.267 187.715 274.183 187.715 271.95C187.715 269.55 187.048 267.667 185.715 266.3C184.381 264.933 182.515 264.25 180.115 264.25C177.915 264.25 175.965 264.817 174.265 265.95C172.598 267.083 171.298 268.6 170.365 270.5C169.465 272.367 169.015 274.433 169.015 276.7C169.015 279.1 169.681 281 171.015 282.4C172.348 283.767 174.231 284.45 176.665 284.45ZM200.921 274.4C201.521 270.933 202.805 267.85 204.771 265.15C206.771 262.417 209.238 260.3 212.171 258.8C215.105 257.267 218.271 256.5 221.671 256.5C225.838 256.5 229.205 257.6 231.771 259.8C234.371 262 235.838 265 236.171 268.8H226.771C226.338 267.367 225.538 266.283 224.371 265.55C223.238 264.783 221.838 264.4 220.171 264.4C217.538 264.4 215.255 265.317 213.321 267.15C211.388 268.95 210.155 271.367 209.621 274.4C209.455 275.333 209.371 276.15 209.371 276.85C209.371 279.183 210.021 281.033 211.321 282.4C212.621 283.767 214.405 284.45 216.671 284.45C218.305 284.45 219.821 284.067 221.221 283.3C222.655 282.533 223.855 281.433 224.821 280H234.221C232.555 283.8 230.038 286.8 226.671 289C223.305 291.167 219.538 292.25 215.371 292.25C212.371 292.25 209.755 291.667 207.521 290.5C205.288 289.333 203.571 287.683 202.371 285.55C201.171 283.417 200.571 280.933 200.571 278.1C200.571 276.833 200.688 275.6 200.921 274.4ZM252.107 263.65L250.857 270.95H262.307L261.157 277.4H249.707L248.307 285.25H261.257L260.057 292H238.557L244.757 256.9H266.257L265.057 263.65H252.107ZM256.407 250.65L247.857 255L248.907 249.1L257.407 244.9L264.407 249.1L263.357 255L256.407 250.65ZM325.63 256.9L319.43 292H310.88L314.63 270.95L303.03 292H296.13L291.93 270.85L288.23 292H279.68L285.88 256.9H295.98L301.58 281.2L315.58 256.9H325.63ZM340.379 263.65L339.129 270.95H350.579L349.429 277.4H337.979L336.579 285.25H349.529L348.329 292H326.829L333.029 256.9H354.529L353.329 263.65H340.379ZM375.68 256.9C379.313 256.9 382.08 257.733 383.98 259.4C385.88 261.033 386.83 263.167 386.83 265.8C386.83 266.567 386.763 267.283 386.63 267.95C386.23 270.283 385.213 272.367 383.58 274.2C381.946 276.033 379.763 277.333 377.03 278.1L382.68 292H373.03L368.08 278.75H366.03L363.68 292H355.13L361.33 256.9H375.68ZM377.88 268.3C377.946 267.767 377.98 267.417 377.98 267.25C377.98 266.183 377.63 265.367 376.93 264.8C376.263 264.2 375.263 263.9 373.93 263.9H368.63L367.08 272.7H372.38C373.946 272.7 375.18 272.317 376.08 271.55C377.013 270.783 377.613 269.7 377.88 268.3ZM402.547 263.65L401.297 270.95H412.747L411.597 277.4H400.147L398.747 285.25H411.697L410.497 292H388.997L395.197 256.9H416.697L415.497 263.65H402.547ZM418.998 274.4C419.598 270.933 420.881 267.85 422.848 265.15C424.848 262.417 427.314 260.3 430.248 258.8C433.181 257.267 436.348 256.5 439.748 256.5C443.914 256.5 447.281 257.6 449.848 259.8C452.448 262 453.914 265 454.248 268.8H444.848C444.414 267.367 443.614 266.283 442.448 265.55C441.314 264.783 439.914 264.4 438.248 264.4C435.614 264.4 433.331 265.317 431.398 267.15C429.464 268.95 428.231 271.367 427.698 274.4C427.531 275.333 427.448 276.15 427.448 276.85C427.448 279.183 428.098 281.033 429.398 282.4C430.698 283.767 432.481 284.45 434.748 284.45C436.381 284.45 437.898 284.067 439.298 283.3C440.731 282.533 441.931 281.433 442.898 280H452.298C450.631 283.8 448.114 286.8 444.748 289C441.381 291.167 437.614 292.25 433.448 292.25C430.448 292.25 427.831 291.667 425.598 290.5C423.364 289.333 421.648 287.683 420.448 285.55C419.248 283.417 418.648 280.933 418.648 278.1C418.648 276.833 418.764 275.6 418.998 274.4ZM470.184 263.65L468.934 270.95H480.384L479.234 277.4H467.784L466.384 285.25H479.334L478.134 292H456.634L462.834 256.9H484.334L483.134 263.65H470.184ZM488.884 292.4C487.551 292.4 486.484 292.05 485.684 291.35C484.918 290.617 484.534 289.7 484.534 288.6C484.534 287.067 485.101 285.767 486.234 284.7C487.401 283.633 488.834 283.1 490.534 283.1C491.834 283.1 492.868 283.467 493.634 284.2C494.401 284.9 494.784 285.817 494.784 286.95C494.784 288.45 494.201 289.733 493.034 290.8C491.901 291.867 490.518 292.4 488.884 292.4Z" fill="#FFB000"/>
</svg>
