<?xml version="1.0" encoding="UTF-8"?>
<!DOCTYPE svg PUBLIC "-//W3C//DTD SVG 1.1//EN" "http://www.w3.org/Graphics/SVG/1.1/DTD/svg11.dtd">
<!-- Creator: CorelDRAW 2021 (64 Bit) -->
<svg xmlns="http://www.w3.org/2000/svg" xml:space="preserve" width="468.851mm" height="169.889mm" version="1.1" style="shape-rendering:geometricPrecision; text-rendering:geometricPrecision; image-rendering:optimizeQuality; fill-rule:evenodd; clip-rule:evenodd"
viewBox="0 0 21247.69 7699.12"
 xmlns:xlink="http://www.w3.org/1999/xlink"
 xmlns:xodm="http://www.corel.com/coreldraw/odm/2003">
 <defs>
  <style type="text/css">
   <![CDATA[
    .fil0 {fill:aqua}
    .fil1 {fill:fuchsia}
    .fil3 {fill:fuchsia}
    .fil2 {fill:#FFB000}
   ]]>
  </style>
 </defs>
 <g id="Camada_x0020_1">
  <metadata id="CorelCorpID_0Corel-Layer"/>
  <g id="_1783357803056">
   <path class="fil0" d="M693.07 1851.74c187.02,405.18 280.53,607.77 280.53,607.77 -296.67,-418.82 -591.44,-835.57 -884.29,-1250.25 -45.89,-14.31 -68.83,-21.47 -68.83,-21.47 -13.65,-96.84 -20.48,-145.25 -20.48,-145.25 74.78,62.3 112.16,93.45 112.16,93.45 0,0 -1.79,22.42 -5.36,67.26 399.83,376.9 701.26,602.91 904.27,678.05 112.84,41.13 171.56,-11.22 176.15,-157.04 15.2,-241.7 -48.21,-479.9 -190.2,-714.61 -73.69,-27.83 -110.54,-41.73 -110.54,-41.73 -25.53,-158.97 -38.29,-238.45 -38.29,-238.45 126.26,110.43 189.39,165.65 189.39,165.65 -15.63,73.45 -23.45,110.17 -23.45,110.17 155.37,240.64 344.69,440.19 567.96,598.64 130.36,99.83 220.72,75.52 271.06,-72.94 75.08,-226.96 123.11,-471.6 144.08,-733.93 -111.81,-105.76 -167.72,-158.63 -167.72,-158.63 0,0 50.38,-186.17 151.15,-558.51 0,0 80.95,175.45 242.86,526.33 0,0 -44.64,61.58 -133.93,184.75 51.93,189.48 126.49,399.67 223.68,630.58 109.04,209.64 224.54,230.32 346.47,62.01 173.04,-189.71 316.44,-407.44 430.2,-653.19 -26.45,-80.93 -39.67,-121.39 -39.67,-121.39 0,0 50.39,-60.6 151.17,-181.79 3.46,165.01 5.19,247.51 5.19,247.51 -68.68,41.57 -103.02,62.35 -103.02,62.35 -93.55,243.16 -114.49,488.99 -62.81,737.47 29.38,142.13 107.06,174.03 233.01,95.67 222.28,-164.87 468.83,-431.16 739.65,-798.85 -11.47,-47.22 -17.2,-70.84 -17.2,-70.84 0,0 35.01,-36.83 105.03,-110.5 -6.3,101.26 -9.44,151.89 -9.44,151.89 -41.94,24.14 -62.91,36.21 -62.91,36.21 -416.03,882.47 -624.05,1323.7 -624.05,1323.7 98.18,-398.2 147.27,-597.29 147.27,-597.29 -191.1,182.02 -352.97,252.71 -485.61,212.04 -100.02,-47.05 -157.7,-186.69 -173.04,-418.94 -169.68,252.72 -321.54,359.99 -455.58,321.82 -165.78,-70.36 -287.13,-267.93 -364.04,-592.73 -46.48,386.9 -144.43,605.71 -293.85,656.44 -120.02,29.83 -276.4,-51.97 -469.14,-245.38 13.88,264.77 -27.67,415.84 -124.62,453.2 -123.43,58.2 -287.84,11.77 -493.21,-139.26zm2561.26 -515.35c-10.23,188.22 -15.35,282.33 -15.35,282.33 0,0 -22.69,11.91 -68.08,35.71 0,0 1.61,-29.78 4.84,-89.35 0,0 -11.37,23.51 -34.11,70.53 0,0 -8.51,-29.71 -25.51,-89.12 0,0 46.07,-70.03 138.2,-210.1zm-864.73 74.4c45.32,66.14 67.98,99.22 67.98,99.22 0,0 12.15,-59.83 36.47,-179.49 0,0 19.58,54.86 58.73,164.6 0,0 23.13,-22.04 69.38,-66.13 0,0 -55.13,-152.33 -165.39,-456.98 0,0 -22.39,146.27 -67.18,438.8zm-640.9 160.98c36.19,-75.55 54.29,-113.32 54.29,-113.32 0,0 -49.44,-134.13 -148.3,-402.4 0,0 -25.64,154.74 -76.92,464.22 48.84,31.68 73.26,47.52 73.26,47.52 26.75,-109.62 40.13,-164.42 40.13,-164.42 38.37,112.27 57.55,168.41 57.55,168.41zm-693.39 180.31c35.35,36.87 53.02,55.3 53.02,55.3 7.42,-57.45 11.13,-86.18 11.13,-86.18 0,0 -60.59,-62.1 -181.77,-186.3 0,0 21.77,90.78 65.3,272.34 49.04,13.68 73.56,20.52 73.56,20.52 -14.15,-50.45 -21.23,-75.67 -21.23,-75.67z"/>
   <path class="fil1" d="M849.18 1771.83c187.02,405.18 280.53,607.77 280.53,607.77 -296.67,-418.82 -591.44,-835.57 -884.29,-1250.25 -45.89,-14.31 -68.83,-21.47 -68.83,-21.47 -13.65,-96.84 -20.48,-145.25 -20.48,-145.25 74.78,62.3 112.16,93.45 112.16,93.45 0,0 -1.79,22.42 -5.36,67.26 399.83,376.9 701.26,602.91 904.27,678.05 112.84,41.13 171.56,-11.22 176.15,-157.04 15.2,-241.7 -48.21,-479.9 -190.21,-714.61 -73.69,-27.83 -110.54,-41.73 -110.54,-41.73 -25.53,-158.97 -38.29,-238.45 -38.29,-238.45 126.26,110.43 189.39,165.65 189.39,165.65 -15.63,73.45 -23.45,110.17 -23.45,110.17 155.37,240.64 344.69,440.19 567.96,598.64 130.36,99.83 220.72,75.52 271.06,-72.94 75.08,-226.96 123.1,-471.6 144.07,-733.93 -111.81,-105.76 -167.72,-158.63 -167.72,-158.63 0,0 50.38,-186.17 151.15,-558.51 0,0 80.95,175.45 242.86,526.33 0,0 -44.64,61.58 -133.92,184.75 51.93,189.48 126.48,399.67 223.68,630.58 109.04,209.64 224.54,230.32 346.47,62.01 173.04,-189.71 316.44,-407.44 430.2,-653.19 -26.45,-80.93 -39.67,-121.39 -39.67,-121.39 0,0 50.39,-60.6 151.17,-181.79 3.46,165.01 5.19,247.51 5.19,247.51 -68.68,41.57 -103.02,62.35 -103.02,62.35 -93.55,243.16 -114.49,488.99 -62.81,737.47 29.38,142.13 107.06,174.03 233.01,95.67 222.28,-164.87 468.83,-431.16 739.65,-798.85 -11.47,-47.22 -17.2,-70.84 -17.2,-70.84 0,0 35.01,-36.83 105.03,-110.5 -6.3,101.26 -9.44,151.89 -9.44,151.89 -41.94,24.14 -62.91,36.21 -62.91,36.21 -416.03,882.47 -624.05,1323.71 -624.05,1323.71 98.18,-398.2 147.27,-597.29 147.27,-597.29 -191.1,182.02 -352.97,252.71 -485.61,212.04 -100.02,-47.05 -157.7,-186.69 -173.04,-418.94 -169.67,252.72 -321.54,359.99 -455.58,321.82 -165.78,-70.36 -287.13,-267.93 -364.04,-592.73 -46.48,386.9 -144.43,605.71 -293.85,656.44 -120.02,29.82 -276.4,-51.97 -469.14,-245.38 13.88,264.77 -27.66,415.84 -124.62,453.2 -123.43,58.2 -287.84,11.77 -493.21,-139.27zm2561.26 -515.35c-10.23,188.22 -15.35,282.33 -15.35,282.33 0,0 -22.69,11.91 -68.08,35.71 0,0 1.62,-29.78 4.84,-89.35 0,0 -11.37,23.51 -34.11,70.53 0,0 -8.51,-29.71 -25.51,-89.12 0,0 46.07,-70.03 138.2,-210.1zm-864.73 74.4c45.32,66.15 67.98,99.22 67.98,99.22 0,0 12.15,-59.83 36.47,-179.49 0,0 19.58,54.86 58.73,164.6 0,0 23.13,-22.04 69.38,-66.14 0,0 -55.13,-152.32 -165.39,-456.98 0,0 -22.39,146.27 -67.18,438.79zm-640.89 160.98c36.19,-75.55 54.28,-113.32 54.28,-113.32 0,0 -49.44,-134.13 -148.3,-402.4 0,0 -25.64,154.74 -76.92,464.22 48.84,31.68 73.26,47.52 73.26,47.52 26.75,-109.62 40.13,-164.42 40.13,-164.42 38.37,112.27 57.55,168.4 57.55,168.4zm-693.4 180.32c35.35,36.87 53.02,55.3 53.02,55.3 7.42,-57.45 11.13,-86.17 11.13,-86.17 0,0 -60.59,-62.1 -181.77,-186.3 0,0 21.77,90.78 65.3,272.34 49.04,13.67 73.56,20.52 73.56,20.52 -14.15,-50.45 -21.23,-75.67 -21.23,-75.67z"/>
   <path class="fil2" d="M765.54 1806.28c187.02,405.18 280.54,607.77 280.54,607.77 -296.67,-418.82 -591.44,-835.57 -884.29,-1250.25 -45.89,-14.31 -68.83,-21.46 -68.83,-21.46 -13.65,-96.84 -20.48,-145.26 -20.48,-145.26 74.77,62.3 112.16,93.45 112.16,93.45 0,0 -1.79,22.42 -5.36,67.26 399.83,376.89 701.25,602.91 904.26,678.05 112.84,41.13 171.56,-11.22 176.15,-157.04 15.2,-241.7 -48.21,-479.9 -190.21,-714.62 -73.69,-27.82 -110.54,-41.73 -110.54,-41.73 -25.53,-158.97 -38.29,-238.45 -38.29,-238.45 126.26,110.44 189.39,165.65 189.39,165.65 -15.63,73.45 -23.45,110.18 -23.45,110.18 155.37,240.64 344.69,440.18 567.96,598.63 130.36,99.83 220.71,75.52 271.06,-72.94 75.08,-226.96 123.1,-471.6 144.07,-733.92 -111.81,-105.76 -167.72,-158.63 -167.72,-158.63 0,0 50.39,-186.17 151.15,-558.52 0,0 80.95,175.45 242.87,526.33 0,0 -44.64,61.58 -133.93,184.75 51.93,189.49 126.48,399.68 223.68,630.58 109.04,209.64 224.53,230.32 346.47,62.01 173.04,-189.71 316.43,-407.44 430.2,-653.19 -26.44,-80.93 -39.67,-121.39 -39.67,-121.39 0,0 50.39,-60.6 151.16,-181.8 3.46,165.01 5.19,247.51 5.19,247.51 -68.68,41.57 -103.02,62.36 -103.02,62.36 -93.55,243.16 -114.48,488.98 -62.81,737.47 29.38,142.14 107.06,174.03 233.01,95.68 222.28,-164.88 468.83,-431.16 739.65,-798.85 -11.47,-47.23 -17.2,-70.84 -17.2,-70.84 0,0 35.01,-36.83 105.03,-110.5 -6.29,101.26 -9.44,151.9 -9.44,151.9 -41.94,24.14 -62.9,36.21 -62.9,36.21 -416.04,882.47 -624.06,1323.7 -624.06,1323.7 98.18,-398.2 147.27,-597.29 147.27,-597.29 -191.1,182.02 -352.97,252.7 -485.6,212.04 -100.02,-47.05 -157.7,-186.69 -173.05,-418.94 -169.67,252.71 -321.54,359.99 -455.58,321.82 -165.78,-70.36 -287.13,-267.94 -364.03,-592.73 -46.48,386.9 -144.43,605.71 -293.85,656.44 -120.02,29.83 -276.4,-51.96 -469.13,-245.38 13.87,264.77 -27.67,415.84 -124.62,453.2 -123.43,58.2 -287.84,11.78 -493.21,-139.26zm2561.27 -515.35c-10.24,188.21 -15.35,282.33 -15.35,282.33 0,0 -22.69,11.9 -68.07,35.71 0,0 1.61,-29.78 4.84,-89.35 0,0 -11.37,23.51 -34.11,70.53 0,0 -8.51,-29.71 -25.51,-89.12 0,0 46.07,-70.04 138.21,-210.1zm-864.73 74.4c45.31,66.14 67.97,99.22 67.97,99.22 0,0 12.16,-59.83 36.47,-179.49 0,0 19.58,54.87 58.73,164.6 0,0 23.13,-22.04 69.38,-66.13 0,0 -55.13,-152.32 -165.39,-456.98 0,0 -22.39,146.26 -67.17,438.79zm-640.9 160.98c36.19,-75.55 54.28,-113.32 54.28,-113.32 0,0 -49.43,-134.13 -148.3,-402.4 0,0 -25.64,154.74 -76.92,464.22 48.84,31.68 73.27,47.52 73.27,47.52 26.75,-109.61 40.13,-164.42 40.13,-164.42 38.36,112.27 57.55,168.4 57.55,168.4zm-693.39 180.32c35.34,36.87 53.01,55.3 53.01,55.3 7.42,-57.45 11.13,-86.18 11.13,-86.18 0,0 -60.59,-62.1 -181.76,-186.3 0,0 21.76,90.78 65.29,272.33 49.04,13.68 73.56,20.52 73.56,20.52 -14.15,-50.45 -21.22,-75.67 -21.22,-75.67z"/>
   <path class="fil0" d="M2037.33 2862.93c70.61,-49.75 146.74,-129.03 270.76,-161.21 132.14,-34.3 271.5,0.44 318.86,88.68 65.04,121.15 35.76,651.84 35.76,827.89 0,1113.1 127.14,1111.03 -625.37,1111.03l0 -1866.39zm-530.57 35.49c13.51,453.1 -19.59,3627.77 9,3693.46l41.8 46.08c118.61,10.94 388.68,-0.94 497.8,-30.04 14.43,-89.15 -39.31,-1118.88 -14,-1435.5l259.68 6.65c23,186.69 181.1,1194.16 238.02,1296.72 84.9,152.97 314.11,258.59 552,176.99 275.5,-94.5 244.96,-324.23 227.27,-496.6 -357.22,69.98 -323.53,-104.72 -374.37,-405.03 -31.62,-186.79 -99.56,-517.67 -103.24,-689.91 216.74,-113.97 351.73,-293.72 351.73,-627.6l0 -1502.81c0,-342.4 -119.26,-573.42 -406.16,-650.98 -145.24,-39.27 -319.86,-45.22 -456.67,-0.95 -74.28,24.04 -113.41,38.9 -178.61,76.1 -63.49,36.22 -93.48,73.69 -159.7,103.1 -72.24,-82.3 -55.29,-121.87 -166.99,-176.32 -140.42,-68.45 -560.94,-83.35 -564.48,341.33 201.65,4.65 241.05,78.6 246.92,275.3zm5152.79 420.06c-2.55,117.94 32.88,287.95 37.02,427.71 16.21,547.99 2.93,1239.22 2.93,1806.58 0,230.29 30.98,301.52 -62.34,393.24 -66.24,65.1 -178.66,146.31 -311.77,131.57 -142.98,-15.82 -143.53,-156.68 -143.34,-300.99 0.82,-602.17 0.03,-1204.4 0.03,-1806.58 0,-267.86 35.6,-618.51 -218.01,-695.66 -208.14,-63.31 -519.73,2.27 -526.56,327.95l68.66 19.2c151.65,27.59 170.03,95.84 172.2,284.08l-0.09 1615.2c0,411.14 -37.46,642.78 206.97,885.42 142.77,141.72 446.14,165.08 649.26,76.14 113.05,-49.5 86.5,-68.99 164.99,-102.19 0,161.19 -0.03,322.38 0,483.58 0.03,167.36 18.93,315.12 -111.09,375.81 -109.31,51.02 -322.51,41.28 -387.11,-45.79 -61.02,-82.24 -20.3,-292.11 -15.2,-412.05 -457.14,-42.45 -555.16,21.1 -503.21,466.53 64.71,554.94 1025.53,540.81 1352.41,262.97 197.84,-168.16 167.96,-502.35 167.96,-823.34l0 -2973.65c0,-467.1 89.82,-449.29 -543.71,-395.74zm5369.9 1736.59c-168.55,-39.5 -458.2,-25.17 -530.09,109.23 -36.26,67.79 -17.65,561.66 -17.65,676.24 0,223.22 -8.49,422.03 121.56,556.62 447.93,463.56 1270.57,281.33 1469.18,-27.73 122.54,-190.67 122.15,-300.01 122.07,-560.87 -0.07,-229.14 0.58,-458.33 0.08,-687.46 -1.14,-531.54 -210.39,-592.65 -541.16,-813.74 -180.16,-120.42 -525.7,-299.03 -589.55,-434.17 -43.51,-92.09 -38.58,-208.93 -38.47,-318.85 0.21,-215.38 -11.04,-460.31 0.81,-671.93 14.53,-259.46 270.29,-290.87 425.55,-245.06 229.94,67.84 197.01,226.93 197.01,485.34 0,221.41 -16.79,460.5 -13.95,671.47 136.26,66.77 446.18,20.33 520.68,-90.95 47.27,-70.6 25.03,-538.02 25.03,-660.46 0,-263.94 18.87,-387.71 -111.51,-573.43 -284.12,-404.73 -1202.75,-368.28 -1453.59,14.47 -122.67,187.17 -121.73,300.32 -121.66,558.96 0.07,229.14 -0.59,458.33 -0.1,687.46 1.12,526.34 211.26,595.98 543.04,809.87 479.32,309 626.41,314.18 626.14,756.89 -0.13,208.48 15.95,488.5 -1.7,688.2 -28.94,327.46 -539.11,310.3 -630.95,80.26 -46.77,-117.15 -8.2,-868.52 -0.77,-1010.36zm2837.67 1594.66c294.28,116.85 596,-101.53 525.73,-333.67 -236.94,-27.91 -232.09,-102.42 -231.95,-347.62 0.2,-355.65 14.63,-2053.09 -11.07,-2221.63 -47.91,-314.13 -287.51,-519.56 -609.27,-489.37 -184.02,17.26 -286.25,95.63 -396.75,164.91 -32.15,-322.97 29.5,-1251.01 -15.99,-1454.85 -184.91,-100.22 -387.89,17.87 -549.75,61.94 28.67,287.83 58.03,161.55 58.02,613.63 0,451.78 -13.71,3850.09 6.78,3922.5 39.49,139.55 407.35,54.33 536.94,32.5 6.76,-76.78 -33.58,-303.13 -36.72,-421.79l-3.31 -1406.89c0,-184.66 -38.51,-801.58 37.22,-908.63 61.18,-86.5 172.45,-168.81 323.19,-136.9 158.96,33.65 157.39,135.87 157.11,310.11 -1,628.8 -0.03,1257.7 -0.03,1886.51 0,283.63 -28.51,634.6 209.85,729.25zm-6750.67 -777.22c0,-193.47 66.31,-364.79 168.48,-453.1 55.76,-48.19 307.6,-219.58 369.15,-244.78l2.01 745.85c0,254.31 -539.63,544.66 -539.63,-47.97zm21.55 -1336.15c57.62,-204.05 -186.59,-944.35 324.64,-849.39 192.07,35.67 193.48,208.54 193.43,410.94 -0.05,196.8 0,393.59 0,590.38 -114.96,62.27 -221.57,135.27 -340.11,202.27 -350.45,198.09 -690.85,371.12 -730.84,901.5 -40.68,539.54 241.58,964.72 747.15,872.79 215.34,-39.16 273.22,-143.22 362.14,-185.05 48.31,118.83 136.33,186.19 298.87,194.42 331.19,16.76 443.58,-215.97 412.12,-336.46 -13.38,-51.26 -108.47,-20.79 -172.24,-65.44 -90.48,-63.34 -69.31,-300.68 -69.31,-431.78 0,-523.56 21.17,-1520.65 -1.16,-1982.92 -36.33,-752.15 -948.2,-667.22 -1255.57,-494.45 -269.36,151.4 -271.61,329.33 -271.61,718.77 0,168.23 -37.87,345.66 81.15,414.04 109.5,62.9 280.31,69.81 421.32,40.4zm-3768.22 -861.47c126.62,-31.44 223.09,42.38 267.02,112.05 61.15,96.99 44.05,219.96 44.04,342.94l0 1550.78c0,244.15 37.26,523.87 -198.95,571.49 -130.72,26.35 -232.01,-39.86 -276.94,-115.55 -52.59,-88.58 -37.38,-225.09 -37.38,-344.03l0 -1550.78c0,-258.73 -51.42,-503.93 202.22,-566.9zm806.22 2437.43c26.98,-163.04 12.11,-430.76 12.11,-607.52 0,-368.85 27.73,-1620.94 -33.66,-1819.5 -99.02,-320.26 -403.7,-456.72 -813.66,-433.34 -357.95,20.41 -615.98,227.9 -669.94,559 -24.02,147.43 -11.08,1011.58 -11.08,1230.2 0,852.42 -201.99,1696.43 842.06,1631.1 356.3,-22.29 619.21,-227.82 674.17,-559.95zm10986.66 -63.95c-19.14,-111.46 -4.55,-1328.48 -4.55,-1550.78 0,-170.44 -36.41,-608.04 45.79,-719.28 137.8,-186.48 418.7,-124.48 460.84,98.04 21.76,114.93 6.65,1325.47 6.65,1548.51 0,180.23 33.86,592.37 -47.9,722.83 -116.12,185.28 -421.83,127.79 -460.84,-99.32zm117.22 -2790.37c-743.92,116.54 -629.55,689.85 -629.55,1223.61 0,378.78 -32.11,1591.16 46.94,1802.03 217.24,579.52 1403.6,549 1475.71,-220.88 34.02,-363.19 5.69,-867.23 5.69,-1245.42 0,-265.9 33.23,-979.33 -51.36,-1179.03 -137.01,-323.47 -505.47,-433.88 -847.43,-380.31zm1837.82 1580.22c-24.89,-230.84 -3.32,-591.15 -3.54,-836.24 -0.14,-155.03 -6.92,-256.13 122.32,-302.27 121.87,-43.5 248.2,-14.38 321.74,58.53 141.39,140.16 81.45,511.39 -2.83,692.01 -77.99,167.15 -301.63,275.48 -437.7,387.96zm-2.01 515.67c131.81,-106.76 279.29,-194.77 423.43,-295.74 149.36,-104.63 297.89,-183.73 399.41,-320.05 187.84,-252.26 309.11,-771.64 149.81,-1126.35 -224.25,-499.33 -1209.68,-487.76 -1427.98,-7.92 -78.28,172.06 -54.46,452.03 -54.46,653.95 0,474.29 0,948.59 0,1422.88 0,393.67 -60.02,835.86 463.12,964.48 416.51,102.4 909.78,-25.61 1030.15,-340.25 41.78,-109.24 49.38,-553.36 34.49,-689.18 -21.34,-194.58 -338.62,-186.76 -514.21,-156.19 22.06,322.72 127.36,838.2 -304.63,779.96 -176,-23.73 -200.93,-169.33 -200.67,-350.96 0.26,-175.23 -6,-360.75 1.54,-534.63zm2884.64 825.05l0 -886.64c-179.51,-322.62 2.13,-193.04 -476.09,-478.56 -107.22,-64.02 -198.89,-113.78 -303.64,-176 -124.41,-73.9 -199.31,-100.11 -226.91,-268.15 -12.69,-77.27 -13.29,-400.81 -2.7,-480 20.09,-150.23 122.1,-220.68 290.13,-207.33 312.99,24.85 215.97,472.31 207.61,733 208.28,26.9 372.38,40.9 511.6,-114.74l0 -560.15c-20.83,-46.75 -26.73,-104.54 -55.32,-162.9 -195.35,-398.7 -881.89,-388.89 -1167.65,-223.01 -186.94,108.52 -298.31,304.01 -297.82,615.54 1.38,880.61 -15.5,787.63 647.97,1192.67 248.42,151.65 378.48,166.29 377.93,549.96 -0.24,168.05 50.48,637.7 -374.59,517.21 -273.77,-77.6 -119.35,-517.43 -155.27,-735.19 -138.81,-17.67 -275.19,-25.35 -395.29,28.9 -142.79,64.49 -108.96,173.64 -108.96,348.95 0,254.23 -31.2,527.22 253.05,684.49 209.33,115.82 536.14,155.54 803.15,89.52 372.09,-92.01 394.58,-330.23 472.82,-467.58zm-10580.89 231.45c-2.31,-101.25 5.47,-67.61 -72.71,-105.02 -196.74,-23.78 -161.79,-238.33 -161.78,-416.88l0 -3421.3c0,-136.69 33.29,-428.99 -40.06,-514.68 -144.1,-64.76 -439.88,8.18 -521.66,99.01 94.98,359.78 57.95,955.49 57.95,1358.93 0,474.29 0,948.59 0,1422.88 0,461.48 -19.62,967.49 2.8,1423.51 11.24,228.66 86.82,389.06 300.68,416.43 236.05,30.21 398.15,-68.41 434.77,-262.88zm0 0l11.66 -27.05c4.07,-19.86 2.9,-10.19 3.69,-29.75 1.45,-35.95 -4.28,-23.53 -9.12,-43.85l-78.94 -4.37c78.18,37.41 70.4,3.77 72.71,105.02z"/>
   <path class="fil3" d="M2284.7 2862.93c70.61,-49.75 146.74,-129.03 270.76,-161.21 132.14,-34.3 271.5,0.44 318.86,88.68 65.04,121.15 35.76,651.84 35.76,827.89 0,1113.1 127.14,1111.03 -625.37,1111.03l0 -1866.39zm-530.57 35.49c13.51,453.1 -19.59,3627.77 9,3693.46l41.8 46.08c118.61,10.94 388.68,-0.94 497.8,-30.04 14.43,-89.15 -39.31,-1118.88 -14,-1435.5l259.68 6.65c23,186.69 181.1,1194.16 238.02,1296.72 84.9,152.97 314.11,258.59 552,176.99 275.5,-94.5 244.96,-324.23 227.27,-496.6 -357.22,69.98 -323.53,-104.72 -374.37,-405.03 -31.62,-186.79 -99.56,-517.67 -103.24,-689.91 216.74,-113.97 351.73,-293.72 351.73,-627.6l0 -1502.81c0,-342.4 -119.26,-573.42 -406.16,-650.98 -145.24,-39.27 -319.86,-45.22 -456.67,-0.95 -74.28,24.04 -113.41,38.9 -178.61,76.1 -63.49,36.22 -93.48,73.69 -159.7,103.1 -72.24,-82.3 -55.29,-121.87 -166.99,-176.32 -140.42,-68.45 -560.94,-83.35 -564.48,341.33 201.65,4.65 241.05,78.6 246.92,275.3zm5152.79 420.06c-2.55,117.94 32.88,287.95 37.02,427.71 16.21,547.99 2.93,1239.22 2.93,1806.58 0,230.29 30.98,301.52 -62.34,393.24 -66.24,65.1 -178.66,146.31 -311.77,131.57 -142.98,-15.82 -143.53,-156.68 -143.34,-300.99 0.82,-602.17 0.03,-1204.4 0.03,-1806.58 0,-267.86 35.6,-618.51 -218.01,-695.66 -208.14,-63.31 -519.73,2.27 -526.56,327.95l68.66 19.2c151.65,27.59 170.03,95.84 172.2,284.08l-0.09 1615.2c0,411.14 -37.46,642.78 206.97,885.42 142.77,141.72 446.14,165.08 649.26,76.14 113.05,-49.5 86.5,-68.99 164.99,-102.19 0,161.19 -0.03,322.38 0,483.58 0.03,167.36 18.93,315.12 -111.09,375.81 -109.31,51.02 -322.51,41.28 -387.11,-45.79 -61.02,-82.24 -20.3,-292.11 -15.2,-412.05 -457.14,-42.45 -555.16,21.1 -503.21,466.53 64.71,554.94 1025.53,540.81 1352.41,262.97 197.84,-168.16 167.96,-502.35 167.96,-823.34l0 -2973.65c0,-467.1 89.82,-449.29 -543.71,-395.74zm5369.9 1736.59c-168.55,-39.5 -458.2,-25.17 -530.09,109.23 -36.26,67.79 -17.65,561.66 -17.65,676.24 0,223.22 -8.49,422.03 121.56,556.62 447.93,463.56 1270.57,281.33 1469.18,-27.73 122.54,-190.67 122.15,-300.01 122.07,-560.87 -0.07,-229.14 0.58,-458.33 0.08,-687.46 -1.14,-531.54 -210.39,-592.65 -541.16,-813.74 -180.16,-120.42 -525.7,-299.03 -589.55,-434.17 -43.51,-92.09 -38.58,-208.93 -38.47,-318.85 0.21,-215.38 -11.04,-460.31 0.81,-671.93 14.53,-259.46 270.29,-290.87 425.55,-245.06 229.94,67.84 197.01,226.93 197.01,485.34 0,221.41 -16.79,460.5 -13.95,671.47 136.26,66.77 446.18,20.33 520.68,-90.95 47.27,-70.6 25.03,-538.02 25.03,-660.46 0,-263.94 18.87,-387.71 -111.51,-573.43 -284.12,-404.73 -1202.75,-368.28 -1453.59,14.47 -122.67,187.17 -121.73,300.32 -121.66,558.96 0.07,229.14 -0.59,458.33 -0.1,687.46 1.12,526.34 211.26,595.98 543.04,809.87 479.32,309 626.41,314.18 626.14,756.89 -0.13,208.48 15.95,488.5 -1.7,688.2 -28.94,327.46 -539.11,310.3 -630.95,80.26 -46.77,-117.15 -8.2,-868.52 -0.77,-1010.36zm2837.67 1594.66c294.28,116.85 596,-101.53 525.73,-333.67 -236.94,-27.91 -232.09,-102.42 -231.95,-347.62 0.2,-355.65 14.63,-2053.09 -11.07,-2221.63 -47.91,-314.13 -287.51,-519.56 -609.27,-489.37 -184.02,17.26 -286.25,95.63 -396.75,164.91 -32.15,-322.97 29.5,-1251.01 -15.99,-1454.85 -184.91,-100.22 -387.89,17.87 -549.75,61.94 28.67,287.83 58.03,161.55 58.02,613.63 0,451.78 -13.71,3850.09 6.78,3922.5 39.49,139.55 407.35,54.33 536.94,32.5 6.76,-76.78 -33.58,-303.13 -36.72,-421.79l-3.31 -1406.89c0,-184.66 -38.51,-801.58 37.22,-908.63 61.18,-86.5 172.45,-168.81 323.19,-136.9 158.96,33.65 157.39,135.87 157.11,310.11 -1,628.8 -0.03,1257.7 -0.03,1886.51 0,283.63 -28.51,634.6 209.85,729.25zm-6750.67 -777.22c0,-193.47 66.31,-364.79 168.48,-453.1 55.76,-48.19 307.6,-219.58 369.15,-244.78l2.01 745.85c0,254.31 -539.63,544.66 -539.63,-47.97zm21.55 -1336.15c57.62,-204.05 -186.59,-944.35 324.64,-849.39 192.07,35.67 193.48,208.54 193.43,410.94 -0.05,196.8 0,393.59 0,590.38 -114.96,62.27 -221.57,135.27 -340.11,202.27 -350.45,198.09 -690.85,371.12 -730.84,901.5 -40.68,539.54 241.58,964.72 747.15,872.79 215.34,-39.16 273.22,-143.22 362.14,-185.05 48.31,118.83 136.33,186.19 298.87,194.42 331.19,16.76 443.58,-215.97 412.12,-336.46 -13.38,-51.26 -108.47,-20.79 -172.24,-65.44 -90.48,-63.34 -69.31,-300.68 -69.31,-431.78 0,-523.56 21.17,-1520.65 -1.16,-1982.92 -36.33,-752.15 -948.2,-667.22 -1255.57,-494.45 -269.36,151.4 -271.61,329.33 -271.61,718.77 0,168.23 -37.87,345.66 81.15,414.04 109.5,62.9 280.31,69.81 421.32,40.4zm-3768.22 -861.47c126.62,-31.44 223.09,42.38 267.02,112.05 61.15,96.99 44.05,219.96 44.04,342.94l0 1550.78c0,244.15 37.26,523.87 -198.95,571.49 -130.72,26.35 -232.01,-39.86 -276.94,-115.55 -52.59,-88.58 -37.38,-225.09 -37.38,-344.03l0 -1550.78c0,-258.73 -51.42,-503.93 202.22,-566.9zm806.22 2437.43c26.98,-163.04 12.11,-430.76 12.11,-607.52 0,-368.85 27.73,-1620.94 -33.66,-1819.5 -99.02,-320.26 -403.7,-456.72 -813.66,-433.34 -357.95,20.41 -615.98,227.9 -669.94,559 -24.02,147.43 -11.08,1011.58 -11.08,1230.2 0,852.42 -201.99,1696.43 842.06,1631.1 356.3,-22.29 619.21,-227.82 674.17,-559.95zm10986.66 -63.95c-19.14,-111.46 -4.55,-1328.48 -4.55,-1550.78 0,-170.44 -36.41,-608.04 45.79,-719.28 137.8,-186.48 418.7,-124.48 460.84,98.04 21.76,114.93 6.65,1325.47 6.65,1548.51 0,180.23 33.86,592.37 -47.9,722.83 -116.12,185.28 -421.83,127.79 -460.84,-99.32zm117.22 -2790.37c-743.92,116.54 -629.55,689.85 -629.55,1223.61 0,378.78 -32.11,1591.16 46.94,1802.03 217.24,579.52 1403.6,549 1475.71,-220.88 34.02,-363.19 5.69,-867.23 5.69,-1245.42 0,-265.9 33.23,-979.33 -51.36,-1179.03 -137.01,-323.47 -505.47,-433.88 -847.43,-380.31zm1837.82 1580.22c-24.89,-230.84 -3.32,-591.15 -3.54,-836.24 -0.14,-155.03 -6.92,-256.13 122.32,-302.27 121.87,-43.5 248.2,-14.38 321.74,58.53 141.39,140.16 81.45,511.39 -2.83,692.01 -77.99,167.15 -301.63,275.48 -437.7,387.96zm-2.01 515.67c131.81,-106.76 279.29,-194.77 423.43,-295.74 149.36,-104.63 297.89,-183.73 399.41,-320.05 187.84,-252.26 309.11,-771.64 149.81,-1126.35 -224.25,-499.33 -1209.68,-487.76 -1427.98,-7.92 -78.28,172.06 -54.46,452.03 -54.46,653.95 0,474.29 0,948.59 0,1422.88 0,393.67 -60.02,835.86 463.12,964.48 416.51,102.4 909.78,-25.61 1030.15,-340.25 41.78,-109.24 49.38,-553.36 34.49,-689.18 -21.34,-194.58 -338.62,-186.76 -514.21,-156.19 22.06,322.72 127.36,838.2 -304.63,779.96 -176,-23.73 -200.93,-169.33 -200.67,-350.96 0.26,-175.23 -6,-360.75 1.54,-534.63zm2884.64 825.05l0 -886.64c-179.51,-322.62 2.13,-193.04 -476.09,-478.56 -107.22,-64.02 -198.89,-113.78 -303.64,-176 -124.41,-73.9 -199.31,-100.11 -226.91,-268.15 -12.69,-77.27 -13.29,-400.81 -2.7,-480 20.09,-150.23 122.1,-220.68 290.13,-207.33 312.99,24.85 215.97,472.31 207.61,733 208.28,26.9 372.38,40.9 511.6,-114.74l0 -560.15c-20.83,-46.75 -26.73,-104.54 -55.32,-162.9 -195.35,-398.7 -881.89,-388.89 -1167.65,-223.01 -186.94,108.52 -298.31,304.01 -297.82,615.54 1.38,880.61 -15.5,787.63 647.97,1192.67 248.42,151.65 378.48,166.29 377.93,549.96 -0.24,168.05 50.48,637.7 -374.59,517.21 -273.77,-77.6 -119.35,-517.43 -155.27,-735.19 -138.81,-17.67 -275.19,-25.35 -395.29,28.9 -142.79,64.49 -108.96,173.64 -108.96,348.95 0,254.23 -31.2,527.22 253.05,684.49 209.33,115.82 536.14,155.54 803.15,89.52 372.09,-92.01 394.58,-330.23 472.82,-467.58zm-10580.89 231.45c-2.31,-101.25 5.47,-67.61 -72.71,-105.02 -196.74,-23.78 -161.79,-238.33 -161.78,-416.88l0 -3421.3c0,-136.69 33.29,-428.99 -40.06,-514.68 -144.1,-64.76 -439.88,8.18 -521.66,99.01 94.98,359.78 57.95,955.49 57.95,1358.93 0,474.29 0,948.59 0,1422.88 0,461.48 -19.62,967.49 2.8,1423.51 11.24,228.66 86.82,389.06 300.68,416.43 236.05,30.21 398.15,-68.41 434.77,-262.88zm0 0l11.66 -27.05c4.07,-19.86 2.9,-10.19 3.69,-29.75 1.45,-35.95 -4.28,-23.53 -9.12,-43.85l-78.94 -4.37c78.18,37.41 70.4,3.77 72.71,105.02z"/>
   <path class="fil2" d="M2152.99 2862.93c70.61,-49.75 146.74,-129.03 270.76,-161.21 132.14,-34.3 271.5,0.44 318.86,88.68 65.04,121.15 35.76,651.84 35.76,827.89 0,1113.1 127.14,1111.03 -625.37,1111.03l0 -1866.39zm-530.57 35.49c13.51,453.1 -19.59,3627.77 9,3693.46l41.8 46.08c118.61,10.94 388.68,-0.94 497.8,-30.04 14.43,-89.15 -39.31,-1118.88 -14,-1435.5l259.68 6.65c23,186.69 181.1,1194.16 238.02,1296.72 84.9,152.97 314.11,258.59 552,176.99 275.5,-94.5 244.96,-324.23 227.27,-496.6 -357.22,69.98 -323.53,-104.72 -374.37,-405.03 -31.62,-186.79 -99.56,-517.67 -103.24,-689.91 216.74,-113.97 351.73,-293.72 351.73,-627.6l0 -1502.81c0,-342.4 -119.26,-573.42 -406.16,-650.98 -145.24,-39.27 -319.86,-45.22 -456.67,-0.95 -74.28,24.04 -113.41,38.9 -178.61,76.1 -63.49,36.22 -93.48,73.69 -159.7,103.1 -72.24,-82.3 -55.29,-121.87 -166.99,-176.32 -140.42,-68.45 -560.94,-83.35 -564.48,341.33 201.65,4.65 241.05,78.6 246.92,275.3zm5152.79 420.06c-2.55,117.94 32.88,287.95 37.02,427.71 16.21,547.99 2.93,1239.22 2.93,1806.58 0,230.29 30.98,301.52 -62.34,393.24 -66.24,65.1 -178.66,146.31 -311.77,131.57 -142.98,-15.82 -143.53,-156.68 -143.34,-300.99 0.82,-602.17 0.03,-1204.4 0.03,-1806.58 0,-267.86 35.6,-618.51 -218.01,-695.66 -208.14,-63.31 -519.73,2.27 -526.56,327.95l68.66 19.2c151.65,27.59 170.03,95.84 172.2,284.08l-0.09 1615.2c0,411.14 -37.46,642.78 206.97,885.42 142.77,141.72 446.14,165.08 649.26,76.14 113.05,-49.5 86.5,-68.99 164.99,-102.19 0,161.19 -0.03,322.38 0,483.58 0.03,167.36 18.93,315.12 -111.09,375.81 -109.31,51.02 -322.51,41.28 -387.11,-45.79 -61.02,-82.24 -20.3,-292.11 -15.2,-412.05 -457.14,-42.45 -555.16,21.1 -503.21,466.53 64.71,554.94 1025.53,540.81 1352.41,262.97 197.84,-168.16 167.96,-502.35 167.96,-823.34l0 -2973.65c0,-467.1 89.82,-449.29 -543.71,-395.74zm5369.9 1736.59c-168.55,-39.5 -458.2,-25.17 -530.09,109.23 -36.26,67.79 -17.65,561.66 -17.65,676.24 0,223.22 -8.49,422.03 121.56,556.62 447.93,463.56 1270.57,281.33 1469.18,-27.73 122.54,-190.67 122.15,-300.01 122.07,-560.87 -0.07,-229.14 0.58,-458.33 0.08,-687.46 -1.14,-531.54 -210.39,-592.65 -541.16,-813.74 -180.16,-120.42 -525.7,-299.03 -589.55,-434.17 -43.51,-92.09 -38.58,-208.93 -38.47,-318.85 0.21,-215.38 -11.04,-460.31 0.81,-671.93 14.53,-259.46 270.29,-290.87 425.55,-245.06 229.94,67.84 197.01,226.93 197.01,485.34 0,221.41 -16.79,460.5 -13.95,671.47 136.26,66.77 446.18,20.33 520.68,-90.95 47.27,-70.6 25.03,-538.02 25.03,-660.46 0,-263.94 18.87,-387.71 -111.51,-573.43 -284.12,-404.73 -1202.75,-368.28 -1453.59,14.47 -122.67,187.17 -121.73,300.32 -121.66,558.96 0.07,229.14 -0.59,458.33 -0.1,687.46 1.12,526.34 211.26,595.98 543.04,809.87 479.32,309 626.41,314.18 626.14,756.89 -0.13,208.48 15.95,488.5 -1.7,688.2 -28.94,327.46 -539.11,310.3 -630.95,80.26 -46.77,-117.15 -8.2,-868.52 -0.77,-1010.36zm2837.67 1594.66c294.28,116.85 596,-101.53 525.73,-333.67 -236.94,-27.91 -232.09,-102.42 -231.95,-347.62 0.2,-355.65 14.63,-2053.09 -11.07,-2221.63 -47.91,-314.13 -287.51,-519.56 -609.27,-489.37 -184.02,17.26 -286.25,95.63 -396.75,164.91 -32.15,-322.97 29.5,-1251.01 -15.99,-1454.85 -184.91,-100.22 -387.89,17.87 -549.75,61.94 28.67,287.83 58.03,161.55 58.02,613.63 0,451.78 -13.71,3850.09 6.78,3922.5 39.49,139.55 407.35,54.33 536.94,32.5 6.76,-76.78 -33.58,-303.13 -36.72,-421.79l-3.31 -1406.89c0,-184.66 -38.51,-801.58 37.22,-908.63 61.18,-86.5 172.45,-168.81 323.19,-136.9 158.96,33.65 157.39,135.87 157.11,310.11 -1,628.8 -0.03,1257.7 -0.03,1886.51 0,283.63 -28.51,634.6 209.85,729.25zm-6750.67 -777.22c0,-193.47 66.31,-364.79 168.48,-453.1 55.76,-48.19 307.6,-219.58 369.15,-244.78l2.01 745.85c0,254.31 -539.63,544.66 -539.63,-47.97zm21.55 -1336.15c57.62,-204.05 -186.59,-944.35 324.64,-849.39 192.07,35.67 193.48,208.54 193.43,410.94 -0.05,196.8 0,393.59 0,590.38 -114.96,62.27 -221.57,135.27 -340.11,202.27 -350.45,198.09 -690.85,371.12 -730.84,901.5 -40.68,539.54 241.58,964.72 747.15,872.79 215.34,-39.16 273.22,-143.22 362.14,-185.05 48.31,118.83 136.33,186.19 298.87,194.42 331.19,16.76 443.58,-215.97 412.12,-336.46 -13.38,-51.26 -108.47,-20.79 -172.24,-65.44 -90.48,-63.34 -69.31,-300.68 -69.31,-431.78 0,-523.56 21.17,-1520.65 -1.16,-1982.92 -36.33,-752.15 -948.2,-667.22 -1255.57,-494.45 -269.36,151.4 -271.61,329.33 -271.61,718.77 0,168.23 -37.87,345.66 81.15,414.04 109.5,62.9 280.31,69.81 421.32,40.4zm-3768.22 -861.47c126.62,-31.44 223.09,42.38 267.02,112.05 61.15,96.99 44.05,219.96 44.04,342.94l0 1550.78c0,244.15 37.26,523.87 -198.95,571.49 -130.72,26.35 -232.01,-39.86 -276.94,-115.55 -52.59,-88.58 -37.38,-225.09 -37.38,-344.03l0 -1550.78c0,-258.73 -51.42,-503.93 202.22,-566.9zm806.22 2437.43c26.98,-163.04 12.11,-430.76 12.11,-607.52 0,-368.85 27.73,-1620.94 -33.66,-1819.5 -99.02,-320.26 -403.7,-456.72 -813.66,-433.34 -357.95,20.41 -615.98,227.9 -669.94,559 -24.02,147.43 -11.08,1011.58 -11.08,1230.2 0,852.42 -201.99,1696.43 842.06,1631.1 356.3,-22.29 619.21,-227.82 674.17,-559.95zm10986.66 -63.95c-19.14,-111.46 -4.55,-1328.48 -4.55,-1550.78 0,-170.44 -36.41,-608.04 45.79,-719.28 137.8,-186.48 418.7,-124.48 460.84,98.04 21.76,114.93 6.65,1325.47 6.65,1548.51 0,180.23 33.86,592.37 -47.9,722.83 -116.12,185.28 -421.83,127.79 -460.84,-99.32zm117.22 -2790.37c-743.92,116.54 -629.55,689.85 -629.55,1223.61 0,378.78 -32.11,1591.16 46.94,1802.03 217.24,579.52 1403.6,549 1475.71,-220.88 34.02,-363.19 5.69,-867.23 5.69,-1245.42 0,-265.9 33.23,-979.33 -51.36,-1179.03 -137.01,-323.47 -505.47,-433.88 -847.43,-380.31zm1837.82 1580.22c-24.89,-230.84 -3.32,-591.15 -3.54,-836.24 -0.14,-155.03 -6.92,-256.13 122.32,-302.27 121.87,-43.5 248.2,-14.38 321.74,58.53 141.39,140.16 81.45,511.39 -2.83,692.01 -77.99,167.15 -301.63,275.48 -437.7,387.96zm-2.01 515.67c131.81,-106.76 279.29,-194.77 423.43,-295.74 149.36,-104.63 297.89,-183.73 399.41,-320.05 187.84,-252.26 309.11,-771.64 149.81,-1126.35 -224.25,-499.33 -1209.68,-487.76 -1427.98,-7.92 -78.28,172.06 -54.46,452.03 -54.46,653.95 0,474.29 0,948.59 0,1422.88 0,393.67 -60.02,835.86 463.12,964.48 416.51,102.4 909.78,-25.61 1030.15,-340.25 41.78,-109.24 49.38,-553.36 34.49,-689.18 -21.34,-194.58 -338.62,-186.76 -514.21,-156.19 22.06,322.72 127.36,838.2 -304.63,779.96 -176,-23.73 -200.93,-169.33 -200.67,-350.96 0.26,-175.23 -6,-360.75 1.54,-534.63zm2884.64 825.05l0 -886.64c-179.51,-322.62 2.13,-193.04 -476.09,-478.56 -107.22,-64.02 -198.89,-113.78 -303.64,-176 -124.41,-73.9 -199.31,-100.11 -226.91,-268.15 -12.69,-77.27 -13.29,-400.81 -2.7,-480 20.09,-150.23 122.1,-220.68 290.13,-207.33 312.99,24.85 215.97,472.31 207.61,733 208.28,26.9 372.38,40.9 511.6,-114.74l0 -560.15c-20.83,-46.75 -26.73,-104.54 -55.32,-162.9 -195.35,-398.7 -881.89,-388.89 -1167.65,-223.01 -186.94,108.52 -298.31,304.01 -297.82,615.54 1.38,880.61 -15.5,787.63 647.97,1192.67 248.42,151.65 378.48,166.29 377.93,549.96 -0.24,168.05 50.48,637.7 -374.59,517.21 -273.77,-77.6 -119.35,-517.43 -155.27,-735.19 -138.81,-17.67 -275.19,-25.35 -395.29,28.9 -142.79,64.49 -108.96,173.64 -108.96,348.95 0,254.23 -31.2,527.22 253.05,684.49 209.33,115.82 536.14,155.54 803.15,89.52 372.09,-92.01 394.58,-330.23 472.82,-467.58zm-10580.89 231.45c-2.31,-101.25 5.47,-67.61 -72.71,-105.02 -196.74,-23.78 -161.79,-238.33 -161.78,-416.88l0 -3421.3c0,-136.69 33.29,-428.99 -40.06,-514.68 -144.1,-64.76 -439.88,8.18 -521.66,99.01 94.98,359.78 57.95,955.49 57.95,1358.93 0,474.29 0,948.59 0,1422.88 0,461.48 -19.62,967.49 2.8,1423.51 11.24,228.66 86.82,389.06 300.68,416.43 236.05,30.21 398.15,-68.41 434.77,-262.88zm0 0l11.66 -27.05c4.07,-19.86 2.9,-10.19 3.69,-29.75 1.45,-35.95 -4.28,-23.53 -9.12,-43.85l-78.94 -4.37c78.18,37.41 70.4,3.77 72.71,105.02z"/>
  </g>
 </g>
</svg>
